<?xml version="1.0" standalone="no"?>
<!DOCTYPE svg PUBLIC "-//W3C//DTD SVG 20010904//EN"
 "http://www.w3.org/TR/2001/REC-SVG-20010904/DTD/svg10.dtd">
<svg version="1.0" xmlns="http://www.w3.org/2000/svg"
 width="252.000000pt" height="200.000000pt" viewBox="0 0 252.000000 200.000000"
 preserveAspectRatio="xMidYMid meet">

<g transform="translate(0.000000,200.000000) scale(0.100000,-0.100000)"
fill="#000000" stroke="none">
<path d="M948 1602 c21 -21 92 -165 92 -187 0 -7 7 -18 15 -25 9 -7 14 -19 11
-26 -3 -8 0 -13 7 -11 7 1 15 -16 19 -43 6 -44 6 -44 2 5 -2 28 -5 66 -5 85
-1 31 -2 32 -8 10 -6 -23 -7 -24 -15 -5 -5 13 -2 23 8 31 14 10 14 13 -4 29
-23 21 -25 32 -7 38 7 2 5 3 -3 3 -8 -1 -23 10 -32 24 -10 14 -26 36 -35 50
-10 13 -12 21 -5 16 6 -4 12 -2 12 3 0 6 -6 11 -12 11 -7 0 -24 3 -37 7 l-24
6 21 -21z"/>
<path d="M913 1585 c-5 -9 -17 -17 -26 -19 -9 -1 -20 -6 -24 -11 -4 -4 -1 -5
7 -1 8 4 2 -3 -15 -16 -27 -21 -53 -47 -73 -72 -4 -5 -6 -23 -4 -40 2 -22 -4
-38 -21 -57 -20 -21 -22 -28 -12 -42 6 -9 14 -16 16 -14 2 1 1 -2 -3 -8 -10
-12 -10 -55 0 -55 7 0 11 -17 16 -91 4 -58 26 -119 43 -119 7 0 13 -6 13 -14
0 -19 26 -28 38 -13 7 8 0 24 -24 52 l-35 40 7 -30 c4 -16 4 -27 -1 -23 -4 3
-8 21 -10 40 -2 18 -7 42 -11 53 -7 20 -7 20 14 1 12 -10 19 -23 16 -27 -3 -5
12 -27 33 -49 27 -29 42 -37 52 -31 11 7 4 15 -27 35 -39 24 -61 46 -47 46 4
0 20 -11 35 -23 35 -30 103 -32 108 -3 3 14 0 16 -15 8 -23 -11 -64 -1 -73 18
-4 8 -13 33 -20 55 -7 22 -20 49 -30 60 -14 16 -16 32 -12 83 5 68 9 72 84 75
18 1 36 7 40 12 5 7 8 7 8 0 0 -12 70 -17 70 -5 0 12 -104 24 -143 16 -27 -5
-29 -4 -13 5 12 7 45 9 87 6 38 -3 69 -3 69 1 -1 16 -32 47 -48 47 -9 0 -18 9
-21 20 -3 17 -2 18 15 5 16 -14 17 -13 11 3 -4 10 -7 24 -7 30 0 7 -4 6 -10
-3 -10 -17 -23 -8 -27 20 -3 21 12 28 20 10 3 -6 4 -5 3 1 -1 7 -12 19 -23 26
-19 13 -22 12 -30 -2z m-23 -65 c-11 -22 -23 -40 -25 -40 -3 0 4 18 15 40 11
22 23 40 25 40 3 0 -4 -18 -15 -40z m-54 -98 c-18 -16 -18 -16 -6 6 6 13 14
21 18 18 3 -4 -2 -14 -12 -24z m14 -16 c0 -2 -12 -11 -27 -20 l-28 -17 24 20
c23 21 31 25 31 17z"/>
<path d="M1000 1582 c0 -5 6 -15 14 -21 12 -10 14 -9 12 5 -3 19 -26 33 -26
16z"/>
<path d="M640 1520 c0 -5 5 -10 11 -10 5 0 7 5 4 10 -3 6 -8 10 -11 10 -2 0
-4 -4 -4 -10z"/>
<path d="M775 1508 c-21 -11 -45 -37 -45 -49 0 -13 46 14 63 38 19 25 13 29
-18 11z"/>
<path d="M1096 1491 c-3 -5 5 -11 19 -13 30 -6 32 -2 6 12 -11 6 -22 6 -25 1z"/>
<path d="M576 1482 c-3 -6 -2 -13 4 -17 6 -4 8 -11 5 -16 -4 -5 1 -9 9 -9 8 0
18 5 22 12 4 7 3 8 -5 4 -7 -4 -14 2 -19 15 -5 14 -11 18 -16 11z"/>
<path d="M1220 1486 c0 -2 8 -10 18 -17 15 -13 16 -12 3 4 -13 16 -21 21 -21
13z"/>
<path d="M1190 1440 c0 -5 5 -10 11 -10 5 0 7 5 4 10 -3 6 -8 10 -11 10 -2 0
-4 -4 -4 -10z"/>
<path d="M575 1420 c-19 -8 -19 -9 3 -9 12 -1 22 4 22 9 0 6 -1 10 -2 9 -2 0
-12 -4 -23 -9z"/>
<path d="M1232 1400 c0 -19 2 -27 5 -17 2 9 2 25 0 35 -3 9 -5 1 -5 -18z"/>
<path d="M715 1400 c-3 -5 -1 -10 4 -10 6 0 11 5 11 10 0 6 -2 10 -4 10 -3 0
-8 -4 -11 -10z"/>
<path d="M1278 1401 c8 -4 13 -11 13 -15 -2 -16 0 -18 12 -7 8 6 17 9 21 6 3
-3 2 0 -4 7 -5 6 -20 13 -32 15 -16 2 -19 0 -10 -6z"/>
<path d="M675 1370 c-9 -14 4 -50 18 -50 7 0 17 11 23 24 9 20 9 26 -3 30 -21
9 -31 7 -38 -4z"/>
<path d="M984 1355 c-12 -8 -25 -11 -29 -7 -4 4 -3 -2 3 -14 15 -28 60 -57 78
-50 17 7 19 57 2 74 -16 16 -29 15 -54 -3z"/>
<path d="M1310 1367 c0 -2 14 -16 31 -33 16 -16 28 -22 24 -14 -5 13 -55 56
-55 47z"/>
<path d="M845 1340 c-9 -29 4 -60 25 -60 27 0 63 49 49 66 -18 22 -67 18 -74
-6z"/>
<path d="M630 1345 c0 -5 5 -17 10 -25 5 -8 10 -10 10 -5 0 6 -5 17 -10 25 -5
8 -10 11 -10 5z"/>
<path d="M1069 1302 c-3 -20 -2 -29 4 -23 5 5 7 19 5 32 -3 20 -5 19 -9 -9z"/>
<path d="M931 1288 c-14 -44 -9 -58 19 -51 23 6 23 6 6 53 l-13 35 -12 -37z"/>
<path d="M1111 1294 c0 -11 3 -14 6 -6 3 7 2 16 -1 19 -3 4 -6 -2 -5 -13z"/>
<path d="M691 1291 c-11 -7 -11 -13 0 -32 11 -20 14 -21 17 -6 6 29 -2 47 -17
38z"/>
<path d="M1120 1259 c0 -5 -4 -8 -9 -4 -5 3 -13 0 -17 -6 -4 -8 -9 -7 -16 2
-8 11 -9 10 -5 -3 4 -9 -1 -19 -10 -22 -11 -5 -14 -2 -9 10 5 14 4 15 -9 4 -8
-7 -13 -16 -10 -20 3 -5 1 -11 -5 -15 -5 -3 -10 1 -10 9 0 9 -4 16 -10 16 -5
0 -7 -6 -5 -12 8 -23 -12 -40 -49 -43 -26 -1 -40 3 -46 15 -5 10 -7 20 -4 22
3 3 -1 8 -9 11 -10 4 -12 -3 -9 -24 5 -32 20 -39 85 -41 45 0 69 -19 45 -34
-7 -5 -8 -2 -3 7 5 8 4 10 0 6 -5 -4 -10 -14 -11 -21 -4 -28 -37 -65 -67 -76
-18 -6 -47 -24 -66 -40 -29 -25 -32 -32 -21 -45 7 -8 10 -15 6 -15 -4 0 0 -13
9 -30 18 -35 19 -44 3 -34 -7 4 -8 3 -4 -5 4 -6 11 -9 16 -6 5 3 18 -11 28
-31 l19 -37 18 24 17 24 -6 -34 c-3 -19 -1 -39 4 -46 6 -7 10 -17 8 -21 -1 -5
1 -19 5 -31 7 -19 11 -20 45 -11 137 35 138 36 192 99 44 50 51 62 39 72 -7 7
-10 8 -6 3 4 -5 -6 -21 -22 -36 -17 -14 -35 -39 -41 -54 -6 -16 -13 -26 -16
-23 -3 3 -1 15 6 26 14 27 0 27 -23 0 -10 -11 -21 -18 -25 -14 -4 4 -1 10 6
12 20 8 14 22 -8 16 -11 -3 -20 -11 -20 -19 0 -7 -5 -16 -12 -20 -7 -5 -9 0
-6 14 4 15 0 22 -15 26 -28 7 -31 2 -12 -17 18 -18 19 -28 4 -25 -23 6 -87 75
-97 106 -6 17 -7 32 -3 32 4 0 6 12 4 28 -2 15 5 44 15 65 11 20 18 37 16 37
-3 0 -25 -19 -49 -41 l-45 -42 25 -45 c28 -49 30 -56 15 -47 -6 4 -17 23 -26
43 -10 26 -17 33 -23 23 -6 -9 -10 -7 -14 8 -3 12 -1 21 5 21 5 0 16 6 24 14
12 13 12 16 -2 24 -12 7 -6 13 33 29 26 12 58 24 70 27 13 4 22 10 20 14 -4
14 80 82 101 82 12 0 24 5 27 10 3 6 -3 10 -14 10 -10 0 -22 6 -24 13 -3 7 -6
4 -6 -6 -1 -10 -6 -15 -12 -12 -7 5 -6 12 4 23 13 16 31 92 21 92 -2 0 -4 -5
-4 -11z m-25 -49 c-9 -18 -19 -30 -21 -27 -3 2 3 18 13 35 23 40 29 33 8 -8z
m-58 -35 c0 -8 -4 -12 -9 -9 -4 3 -8 9 -8 15 0 5 4 9 8 9 5 0 9 -7 9 -15z m24
-28 c-10 -9 -11 -8 -5 6 3 10 9 15 12 12 3 -3 0 -11 -7 -18z m-21 -41 c0 -2
-8 -10 -17 -17 -16 -13 -17 -12 -4 4 13 16 21 21 21 13z"/>
<path d="M532 1230 c0 -14 2 -19 5 -12 2 6 2 18 0 25 -3 6 -5 1 -5 -13z"/>
<path d="M562 1208 c1 -18 3 -27 5 -20 7 18 21 15 26 -5 3 -11 5 -8 6 9 1 21
-3 26 -14 22 -11 -5 -13 -2 -9 10 3 9 1 16 -4 16 -6 0 -10 -15 -10 -32z"/>
<path d="M686 1207 c7 -48 44 -147 55 -147 14 0 10 20 -11 59 -11 20 -27 56
-35 81 -14 45 -15 45 -9 7z"/>
<path d="M662 1120 c-12 -16 -18 -32 -13 -35 6 -3 14 3 20 12 6 10 11 13 11 6
0 -6 -11 -25 -25 -41 -14 -17 -25 -37 -25 -45 0 -8 -6 -17 -12 -20 -8 -2 -9
-8 -4 -13 5 -5 11 -3 14 5 7 22 42 53 55 49 18 -7 19 -26 2 -24 -9 0 -28 -15
-42 -34 -16 -21 -17 -26 -4 -11 17 19 22 20 27 8 10 -28 0 -72 -18 -72 -19 0
-58 -33 -58 -49 0 -6 4 -5 9 3 6 9 11 10 15 2 4 -6 1 -14 -8 -17 -17 -7 -30
-35 -14 -31 6 1 13 -4 16 -12 2 -8 0 -11 -6 -7 -5 3 -12 0 -15 -8 -4 -9 3 -16
19 -20 13 -4 24 -11 24 -17 0 -8 -5 -7 -15 1 -22 19 -25 8 -3 -12 10 -10 18
-14 18 -8 0 6 5 10 12 10 6 0 20 8 31 18 24 20 15 0 -13 -33 -10 -11 -21 -31
-24 -45 -6 -24 -6 -24 16 4 13 16 36 43 51 60 28 30 28 30 -2 -13 -34 -48 -39
-76 -16 -85 9 -3 15 -19 15 -41 0 -21 4 -34 10 -30 6 3 7 -1 4 -9 -3 -9 -11
-13 -18 -9 -6 3 -8 2 -3 -2 4 -5 -1 -17 -10 -28 -17 -20 -17 -20 7 -13 14 4
37 9 52 10 25 3 26 1 21 -31 -4 -26 -2 -33 11 -33 9 0 16 -6 16 -14 0 -8 5
-18 12 -22 7 -5 9 -2 5 9 -3 9 5 31 19 52 13 20 24 40 24 45 0 21 -30 8 -54
-22 -16 -21 -26 -27 -26 -17 0 8 5 20 11 26 16 16 3 47 -16 39 -12 -4 -13 -2
-6 12 14 25 50 56 58 49 3 -4 1 -7 -5 -7 -7 0 -12 -5 -12 -11 0 -8 5 -8 15 1
19 16 20 44 1 37 -13 -5 -13 -1 -1 34 8 21 12 39 9 39 -2 0 3 14 11 30 9 17
13 35 10 40 -3 6 -2 10 4 10 17 0 24 -22 10 -31 -9 -5 -10 -9 -2 -9 10 0 62
-113 77 -170 24 -86 49 -140 67 -140 11 0 19 7 19 15 0 8 -5 15 -11 15 -6 0
-9 7 -5 15 3 8 2 15 -2 15 -10 0 -34 58 -51 118 -6 23 -16 42 -21 42 -6 0 -9
3 -8 8 1 4 -7 25 -17 47 -10 22 -17 43 -17 47 1 4 -16 44 -39 89 -29 57 -39
88 -35 105 5 19 2 24 -11 24 -14 0 -15 -2 -5 -9 11 -6 10 -10 -4 -15 -9 -3
-14 -9 -10 -13 3 -3 -3 -12 -14 -20 -19 -14 -29 -40 -11 -28 6 3 14 -2 19 -12
8 -13 5 -20 -15 -30 -14 -7 -30 -13 -37 -13 -6 0 -17 -9 -24 -20 -7 -11 -22
-19 -35 -19 l-22 2 23 4 c12 2 22 8 22 12 0 5 -11 6 -25 3 -22 -4 -25 -1 -25
22 0 19 5 26 20 26 25 0 37 23 49 99 5 33 12 65 15 70 3 5 -5 32 -17 60 l-24
50 -21 -29z m161 -256 c16 -31 25 -59 22 -62 -3 -3 -5 0 -5 7 0 7 -5 9 -12 5
-8 -5 -9 -2 -5 9 3 10 2 17 -3 17 -11 0 -30 33 -35 61 -7 36 11 19 38 -37z
m-183 32 c0 -2 -8 -10 -17 -17 -16 -13 -17 -12 -4 4 13 16 21 21 21 13z m109
-135 c-7 -23 -14 -39 -16 -37 -3 2 1 23 8 45 7 23 14 39 16 37 3 -2 -1 -23 -8
-45z m-20 -118 c-1 -42 -3 -51 -8 -33 -4 14 -7 32 -5 40 1 8 3 23 3 33 1 9 3
17 6 17 3 0 5 -26 4 -57z"/>
<path d="M1151 1133 c-19 -3 -44 -11 -55 -19 -19 -14 -17 -14 29 -9 36 4 46 3
34 -5 -10 -5 -34 -12 -54 -15 -53 -6 -56 -15 -6 -15 78 0 126 -45 140 -130 l6
-35 17 35 c11 21 18 28 18 17 0 -10 -7 -28 -16 -41 -8 -13 -11 -27 -6 -30 15
-9 43 51 36 78 -3 14 -11 23 -16 20 -6 -4 -8 4 -4 22 3 16 2 36 -4 44 -6 10
-10 11 -10 3 0 -19 -20 -16 -27 5 -3 9 -17 27 -32 39 l-26 23 24 -5 c14 -2 29
-9 35 -15 17 -17 23 -11 18 15 -5 26 -15 28 -101 18z"/>
<path d="M1176 995 c5 -11 -1 -15 -18 -15 -13 0 -29 -5 -36 -12 -9 -9 -12 -9
-12 1 0 9 -5 8 -16 -3 -8 -9 -20 -16 -26 -16 -13 0 -63 -40 -52 -41 5 -1 13
-1 18 0 13 3 56 -41 50 -50 -3 -5 0 -9 5 -9 6 0 11 16 11 35 0 19 4 35 9 35 5
0 12 10 15 23 6 22 7 22 21 3 21 -27 19 -47 -5 -53 -11 -3 -20 -12 -20 -20 0
-10 6 -13 16 -9 9 3 22 6 29 6 7 0 16 8 18 18 4 14 5 14 7 -3 1 -11 8 5 15 35
12 51 12 55 -7 72 -26 22 -29 22 -22 3z m14 -41 c0 -8 -4 -12 -10 -9 -5 3 -10
10 -10 16 0 5 5 9 10 9 6 0 10 -7 10 -16z m-100 -30 c0 -8 -5 -12 -10 -9 -6 4
-8 11 -5 16 9 14 15 11 15 -7z"/>
<path d="M715 890 c3 -5 8 -10 11 -10 2 0 4 5 4 10 0 6 -5 10 -11 10 -5 0 -7
-4 -4 -10z"/>
<path d="M990 842 c6 -13 14 -21 18 -18 3 4 -2 14 -12 24 -18 16 -18 16 -6 -6z"/>
<path d="M876 837 c3 -10 9 -15 12 -12 3 3 0 11 -7 18 -10 9 -11 8 -5 -6z"/>
<path d="M1270 825 c-6 -8 -10 -19 -8 -26 2 -6 9 0 16 15 13 29 10 33 -8 11z"/>
<path d="M920 779 c0 -5 5 -7 10 -4 6 3 10 8 10 11 0 2 -4 4 -10 4 -5 0 -10
-5 -10 -11z"/>
<path d="M1227 773 c-4 -3 -7 -11 -7 -17 0 -6 5 -5 12 2 6 6 9 14 7 17 -3 3
-9 2 -12 -2z"/>
<path d="M936 761 c-3 -5 1 -11 9 -15 8 -3 15 -1 15 4 0 13 -18 22 -24 11z"/>
<path d="M565 750 c-3 -5 -1 -10 4 -10 6 0 11 5 11 10 0 6 -2 10 -4 10 -3 0
-8 -4 -11 -10z"/>
<path d="M1174 727 c-16 -14 -56 -38 -90 -55 -48 -24 -64 -28 -74 -19 -7 7 -6
1 3 -12 8 -13 13 -29 11 -35 -3 -7 2 -13 10 -13 8 0 12 6 10 12 -3 6 31 33 75
60 71 43 100 70 87 82 -2 2 -16 -7 -32 -20z"/>
<path d="M841 712 c-16 -29 -14 -32 14 -32 28 0 31 8 11 35 -13 18 -14 18 -25
-3z"/>
<path d="M876 574 c-17 -17 -19 -35 -9 -73 l6 -23 13 28 c10 23 13 25 13 9 1
-19 2 -18 16 2 18 25 11 73 -10 73 -8 0 -21 -7 -29 -16z"/>
<path d="M1073 493 c4 -3 -1 -12 -11 -20 -15 -13 -15 -13 6 -3 19 9 23 30 5
30 -4 0 -3 -3 0 -7z"/>
</g>
</svg>
