<?xml version="1.0" standalone="no"?>
<!DOCTYPE svg PUBLIC "-//W3C//DTD SVG 20010904//EN"
 "http://www.w3.org/TR/2001/REC-SVG-20010904/DTD/svg10.dtd">
<svg version="1.0" xmlns="http://www.w3.org/2000/svg"
 width="840.000000pt" height="859.000000pt" viewBox="0 0 840.000000 859.000000"
 preserveAspectRatio="xMidYMid meet">

<g transform="translate(0.000000,859.000000) scale(0.100000,-0.100000)"
fill="#000000" stroke="none">
<path d="M7369 6537 c-37 -12 -86 -36 -109 -52 -44 -30 -90 -83 -90 -103 0
-18 -7 -15 -73 32 -137 97 -247 132 -386 122 -104 -7 -191 -44 -256 -111 -25
-26 -45 -50 -45 -54 0 -4 11 -13 24 -19 45 -20 94 -72 117 -124 20 -45 23 -69
23 -153 0 -93 -7 -127 -101 -495 -56 -217 -115 -458 -132 -535 -46 -211 -62
-255 -127 -358 -55 -84 -112 -147 -189 -205 -33 -25 -64 -49 -69 -53 -5 -4 9
-29 31 -56 87 -104 133 -218 135 -328 1 -76 -56 -309 -187 -760 -186 -642
-355 -1023 -474 -1076 -17 -8 -31 -17 -31 -21 0 -11 98 -87 140 -108 116 -59
270 -41 393 47 l48 34 19 -23 c10 -13 42 -37 72 -53 49 -28 61 -30 153 -30
110 0 172 20 228 73 53 50 53 58 3 113 -48 54 -80 124 -90 204 -8 57 13 194
70 455 19 91 53 248 74 350 l38 185 324 3 324 2 22 -118 c21 -119 110 -496
157 -667 40 -151 26 -290 -40 -387 -14 -20 -25 -41 -25 -45 0 -18 97 -103 140
-122 88 -40 221 -21 287 41 l22 20 58 -36 c89 -54 142 -69 232 -64 62 4 88 11
136 36 61 33 155 107 155 122 0 5 -10 12 -22 15 -63 19 -131 100 -174 205 -13
33 -37 137 -54 232 -17 95 -62 335 -100 533 -38 198 -84 446 -101 550 -47 288
-37 355 82 535 32 50 59 94 59 98 0 4 -35 41 -78 82 -99 97 -172 194 -222 295
-35 70 -43 101 -65 240 -45 286 -85 640 -115 1014 -17 213 11 344 96 447 l35
43 -43 23 c-66 34 -210 37 -299 5z m-260 -1997 c45 -316 81 -583 81 -592 0
-17 -19 -18 -255 -18 l-255 0 0 23 c1 50 330 1181 341 1169 4 -4 43 -266 88
-582z"/>
<path d="M1205 6534 c-120 -17 -173 -29 -264 -60 -116 -38 -183 -73 -282 -146
-230 -167 -398 -466 -461 -818 -27 -151 -29 -462 -3 -585 44 -210 187 -439
358 -575 34 -26 109 -100 167 -164 108 -119 149 -188 150 -253 0 -18 4 -33 8
-33 18 0 289 -52 327 -62 22 -6 63 -29 91 -50 72 -54 245 -235 277 -288 38
-65 93 -240 107 -343 37 -266 -74 -499 -288 -604 -72 -36 -81 -38 -172 -37
-108 0 -148 14 -240 83 -108 81 -201 221 -235 356 -28 112 -15 361 26 469 10
28 44 84 75 125 l57 74 -24 18 c-72 56 -171 80 -246 60 -23 -6 -65 -27 -94
-47 -52 -34 -52 -35 -73 -15 -51 46 -108 66 -192 66 -73 0 -87 -3 -157 -38
-42 -21 -77 -41 -77 -45 1 -4 15 -16 33 -27 62 -39 102 -146 127 -345 53 -417
180 -740 363 -923 202 -202 472 -299 842 -300 133 -1 175 2 247 21 317 79 553
263 690 537 48 95 73 179 105 358 25 137 28 175 28 382 -1 218 -2 236 -28 340
-68 269 -201 488 -398 650 -86 71 -137 134 -175 212 -33 70 -64 183 -64 233
l0 37 -137 7 c-267 13 -340 37 -461 151 -106 98 -171 209 -227 385 -75 238 34
518 241 620 80 39 207 64 289 56 84 -8 172 -53 233 -120 85 -94 86 -99 107
-461 9 -176 20 -351 24 -389 l6 -70 256 -2 256 -2 6 262 c4 143 7 349 7 456 1
107 6 269 11 360 15 219 15 211 -17 238 -23 21 -35 23 -73 19 -25 -3 -74 -20
-108 -37 -61 -30 -65 -31 -119 -20 -45 10 -73 25 -137 76 -122 96 -262 159
-426 190 -77 15 -283 26 -336 18z"/>
<path d="M4120 6534 c-94 -12 -213 -38 -300 -66 -449 -143 -832 -455 -1011
-823 -91 -189 -129 -347 -129 -544 0 -174 31 -267 121 -365 l49 -54 0 -503 0
-504 24 -50 c41 -88 142 -156 263 -175 32 -6 145 -10 250 -10 l193 0 17 -27
c14 -21 18 -47 17 -113 0 -126 -39 -274 -130 -498 -30 -74 -54 -141 -54 -150
1 -36 39 -100 71 -120 40 -24 273 -84 420 -108 77 -13 167 -17 344 -17 353 -1
530 28 687 110 123 64 129 107 43 323 -114 289 -156 505 -112 573 l17 27 183
0 c100 0 210 5 245 10 141 23 235 82 278 174 l24 51 0 510 0 509 29 31 c45 46
99 142 122 215 15 49 20 91 20 175 -2 446 -247 862 -671 1137 -183 119 -412
214 -621 258 -101 21 -311 34 -389 24z m-242 -1798 c61 -31 105 -78 133 -141
33 -74 31 -213 -3 -317 -86 -259 -327 -462 -608 -510 -256 -44 -408 164 -410
559 0 129 12 199 43 245 32 47 100 95 160 113 131 39 480 87 580 80 33 -3 77
-15 105 -29z m998 14 c326 -37 447 -72 518 -150 50 -56 60 -102 60 -275 0
-291 -73 -470 -223 -541 -91 -44 -267 -23 -410 47 -201 99 -370 345 -399 581
-23 182 33 292 173 340 64 22 75 22 281 -2z m-541 -839 c138 -64 223 -269 251
-607 7 -90 -4 -144 -40 -182 -84 -93 -246 -67 -293 47 l-15 36 -19 -36 c-10
-20 -32 -48 -49 -63 -32 -26 -98 -49 -121 -42 -8 2 -26 7 -41 10 -50 11 -96
61 -109 120 -15 67 1 264 31 381 66 263 244 410 405 336z"/>
</g>
</svg>
