<?xml version="1.0" standalone="no"?>
<!DOCTYPE svg PUBLIC "-//W3C//DTD SVG 20010904//EN"
 "http://www.w3.org/TR/2001/REC-SVG-20010904/DTD/svg10.dtd">
<svg version="1.0" xmlns="http://www.w3.org/2000/svg"
 width="960.000000pt" height="960.000000pt" viewBox="0 0 960.000000 960.000000"
 preserveAspectRatio="xMidYMid meet">

<g transform="translate(0.000000,960.000000) scale(0.100000,-0.100000)"
fill="#000000" stroke="none">
<path d="M4540 9373 c-58 -2 -109 -8 -114 -13 -6 -6 -25 -10 -42 -10 -18 0
-36 -4 -39 -10 -3 -6 -48 -10 -100 -10 -52 0 -97 -4 -100 -10 -3 -5 -30 -10
-60 -10 -30 0 -57 -4 -60 -10 -3 -5 -26 -10 -50 -10 -24 0 -47 -4 -50 -10 -3
-5 -30 -10 -60 -10 -30 0 -57 -4 -60 -10 -3 -5 -26 -10 -50 -10 -24 0 -47 -4
-50 -10 -3 -5 -17 -10 -30 -10 -13 0 -27 -4 -30 -10 -3 -5 -17 -10 -30 -10
-13 0 -27 -4 -30 -10 -3 -5 -21 -10 -40 -10 -19 0 -37 -4 -40 -10 -3 -5 -17
-10 -30 -10 -13 0 -27 -4 -30 -10 -3 -5 -17 -10 -30 -10 -13 0 -27 -4 -30 -10
-3 -5 -17 -10 -30 -10 -13 0 -27 -4 -30 -10 -3 -5 -15 -10 -25 -10 -11 0 -35
-9 -55 -20 -20 -11 -42 -20 -50 -20 -8 0 -30 -9 -50 -20 -20 -11 -41 -20 -48
-20 -17 0 -315 -150 -355 -178 -16 -12 -33 -22 -36 -22 -4 0 -40 -22 -81 -50
-41 -27 -77 -50 -81 -50 -3 0 -66 -44 -138 -98 -72 -55 -151 -113 -176 -130
-62 -42 -410 -395 -450 -457 -19 -27 -48 -66 -66 -86 -18 -21 -39 -52 -48 -70
-9 -19 -43 -70 -76 -114 -32 -44 -65 -91 -72 -105 -7 -14 -21 -38 -32 -54 -29
-42 -236 -458 -236 -473 0 -7 -9 -28 -20 -48 -11 -20 -20 -44 -20 -55 0 -10
-4 -22 -10 -25 -5 -3 -10 -15 -10 -25 0 -11 -9 -35 -20 -55 -11 -20 -20 -44
-20 -55 0 -10 -4 -22 -10 -25 -5 -3 -10 -19 -10 -35 0 -16 -9 -45 -20 -65 -11
-20 -20 -49 -20 -65 0 -16 -4 -32 -10 -35 -5 -3 -10 -21 -10 -40 0 -19 -4 -37
-10 -40 -5 -3 -10 -21 -10 -40 0 -19 -5 -37 -10 -40 -6 -3 -10 -26 -10 -51 0
-30 -5 -46 -15 -50 -19 -8 -19 -44 1 -72 23 -33 63 -50 145 -62 41 -5 97 -14
124 -19 28 -5 77 -14 110 -20 33 -6 80 -15 105 -21 41 -10 97 -20 190 -35 54
-9 139 -26 206 -41 33 -8 92 -19 130 -24 38 -5 92 -15 119 -21 28 -6 63 -12
78 -13 31 -1 56 -34 57 -72 0 -11 9 -39 20 -62 11 -22 20 -46 20 -51 0 -17 79
-162 116 -212 49 -67 192 -199 257 -238 74 -44 162 -73 196 -64 14 3 44 15 65
26 38 18 40 19 53 1 7 -10 13 -23 13 -29 0 -6 10 -31 22 -56 24 -48 29 -152
10 -200 -12 -30 7 -117 35 -158 11 -17 18 -49 19 -91 1 -36 5 -85 9 -108 7
-40 4 -47 -23 -75 -18 -19 -36 -52 -44 -82 -7 -28 -28 -70 -48 -95 -49 -61
-119 -213 -120 -259 0 -7 -13 -41 -29 -75 -16 -33 -32 -72 -36 -86 -4 -14 -17
-47 -30 -75 -59 -127 -66 -155 -63 -271 3 -105 2 -110 -26 -154 -16 -25 -61
-79 -101 -121 -75 -79 -83 -96 -86 -189 -3 -84 11 -130 53 -172 21 -21 52 -41
69 -45 16 -3 32 -10 35 -15 3 -5 -17 -44 -45 -86 -60 -92 -68 -122 -48 -190
15 -50 15 -52 -10 -99 -32 -60 -37 -169 -10 -221 20 -36 18 -43 -39 -122 -115
-160 -124 -269 -30 -347 66 -54 105 -59 201 -22 89 33 108 39 116 33 6 -3 9
-50 8 -107 -2 -94 9 -207 26 -282 10 -40 50 -92 89 -116 37 -23 119 -25 156
-4 38 22 55 18 109 -20 68 -49 86 -108 77 -253 -4 -71 -11 -112 -21 -126 -62
-84 -65 -90 -65 -137 0 -36 -6 -55 -25 -77 -14 -17 -32 -46 -40 -66 -40 -95 8
-230 96 -266 31 -13 113 -9 174 9 22 7 51 15 64 18 12 3 46 21 74 40 62 41 89
40 98 -4 3 -18 14 -44 23 -58 9 -14 22 -65 27 -113 6 -48 17 -99 25 -113 22
-43 102 -107 137 -111 25 -2 36 -12 60 -53 56 -97 122 -145 197 -145 48 0 71
12 122 65 l38 40 0 94 c0 119 21 191 67 232 19 16 37 29 42 29 4 0 30 -19 56
-42 45 -39 53 -43 114 -46 l66 -4 53 52 c28 28 52 57 52 65 0 17 59 30 95 21
14 -4 25 -13 25 -22 0 -8 9 -34 20 -56 11 -23 20 -46 20 -50 0 -30 76 -162
117 -203 60 -60 75 -65 179 -65 92 0 249 34 320 69 22 10 50 24 64 30 47 22
110 58 128 73 9 8 43 27 75 42 40 19 86 56 147 118 50 50 90 96 90 103 0 7 5
15 10 17 15 5 39 77 40 117 0 23 -23 82 -71 178 -39 78 -75 145 -80 148 -4 3
-16 23 -25 43 -10 20 -24 45 -32 54 -24 29 -82 151 -82 173 0 25 31 55 80 78
19 9 47 28 62 42 15 14 31 25 35 25 5 0 27 17 49 39 25 23 63 46 95 56 30 10
61 24 70 31 8 8 20 14 26 14 5 0 18 9 28 20 10 11 23 20 29 20 7 0 35 22 63
49 28 26 62 51 75 54 13 4 49 31 80 60 31 30 67 57 82 61 14 3 62 42 106 86
43 44 83 80 88 80 12 0 112 100 112 112 0 4 14 22 30 40 17 17 30 35 30 39 0
5 34 43 75 85 50 51 85 98 105 140 17 35 35 66 40 69 5 3 17 23 26 43 10 20
23 44 29 52 13 16 49 163 60 238 5 41 17 70 41 102 7 8 15 30 19 48 4 18 13
45 21 60 9 18 14 60 14 122 0 88 -2 97 -25 123 -32 34 -42 105 -26 173 10 43
9 57 -9 113 -11 35 -20 73 -20 85 0 12 -11 33 -25 48 -20 21 -31 55 -51 150
-14 68 -37 146 -50 173 -14 28 -27 68 -31 90 -3 22 -12 48 -20 57 -8 9 -19 48
-24 87 -4 39 -14 81 -20 93 -7 12 -15 70 -19 128 -5 76 -13 117 -28 149 -12
24 -24 59 -28 77 -4 22 -24 51 -56 83 -74 74 -114 81 -440 81 -145 0 -269 4
-276 9 -10 6 -10 16 2 52 29 86 46 195 46 295 0 74 5 118 20 164 24 75 25 132
4 214 -17 68 -53 176 -63 191 -9 12 -33 94 -56 184 -10 39 -30 84 -51 112 -39
53 -40 63 -16 176 18 82 32 116 32 74 0 -12 9 -59 20 -104 10 -45 26 -117 35
-159 9 -43 23 -84 31 -92 8 -8 14 -19 14 -24 0 -5 30 -39 66 -75 73 -73 96
-82 193 -75 45 3 66 10 91 31 37 32 45 32 85 10 17 -9 53 -19 80 -22 47 -6 50
-8 48 -33 -1 -15 -17 -43 -37 -64 -33 -35 -36 -44 -36 -95 0 -54 2 -59 46
-103 44 -44 49 -46 102 -46 39 0 61 5 75 18 15 13 41 18 113 20 l93 4 46 46
c26 25 49 59 52 74 9 43 44 37 98 -17 25 -24 45 -48 45 -53 0 -5 25 -34 55
-65 60 -62 91 -73 175 -65 52 5 96 33 124 80 18 29 23 143 7 153 -11 6 -41 63
-41 76 0 14 -49 118 -59 123 -18 11 -113 215 -108 230 4 9 18 16 35 16 16 0
51 7 78 15 52 15 151 35 274 55 41 7 163 29 270 50 107 21 230 44 273 51 66
11 83 18 103 43 16 18 23 35 18 45 -3 9 -8 36 -11 61 -2 25 -8 54 -13 65 -5
11 -11 34 -13 50 -3 17 -12 55 -21 85 -9 30 -23 82 -32 115 -9 33 -20 65 -24
70 -4 6 -15 38 -24 73 -9 34 -25 82 -36 107 -11 24 -20 48 -20 52 0 4 -14 35
-30 68 -16 33 -30 64 -30 69 0 15 -141 295 -151 302 -5 3 -18 25 -29 49 -11
24 -24 46 -29 49 -5 3 -24 35 -42 71 -18 35 -43 74 -56 86 -12 13 -23 28 -23
34 0 6 -11 22 -25 35 -14 13 -35 43 -47 66 -11 23 -45 66 -74 95 -30 29 -54
58 -54 64 0 13 -452 465 -465 465 -6 0 -33 23 -60 50 -27 28 -54 50 -60 50 -6
0 -24 14 -40 30 -16 17 -34 30 -40 30 -6 0 -22 12 -36 26 -13 14 -42 34 -65
44 -22 11 -47 26 -54 35 -7 8 -18 15 -25 15 -7 0 -18 7 -25 15 -7 9 -34 25
-59 36 -25 11 -55 25 -66 31 -58 34 -331 168 -341 168 -7 0 -38 14 -69 30 -31
17 -62 30 -69 30 -7 0 -31 9 -54 20 -22 11 -48 20 -56 20 -8 0 -18 5 -21 10
-3 6 -21 10 -40 10 -19 0 -37 5 -40 10 -3 6 -17 10 -30 10 -13 0 -27 5 -30 10
-3 6 -17 10 -30 10 -13 0 -27 5 -30 10 -3 6 -17 10 -30 10 -13 0 -27 5 -30 10
-3 6 -21 10 -40 10 -19 0 -37 5 -40 10 -3 6 -21 10 -40 10 -19 0 -37 5 -40 10
-3 6 -26 10 -50 10 -24 0 -47 5 -50 10 -3 6 -30 10 -60 10 -30 0 -57 5 -60 10
-3 6 -26 10 -50 10 -24 0 -47 5 -50 10 -3 6 -30 10 -60 10 -30 0 -57 5 -60 10
-3 6 -39 10 -79 10 -39 0 -76 4 -82 9 -10 11 -429 20 -594 14z m620 -83 c63
-6 142 -15 175 -20 33 -5 74 -11 90 -14 293 -40 644 -135 915 -248 334 -140
583 -289 914 -548 91 -71 294 -269 401 -390 237 -270 454 -617 594 -950 29
-69 56 -134 61 -145 57 -131 177 -557 168 -601 -3 -19 -69 -34 -433 -100 -77
-14 -162 -29 -190 -34 -27 -6 -99 -19 -160 -30 -60 -12 -130 -25 -155 -30 -25
-4 -75 -14 -112 -21 -38 -6 -68 -16 -68 -22 0 -5 12 -24 28 -42 66 -79 245
-413 258 -481 8 -45 -19 -100 -58 -113 -70 -24 -121 -9 -158 47 -13 20 -63 76
-109 125 -65 67 -91 87 -112 87 -33 0 -45 -14 -54 -63 -10 -53 -44 -99 -88
-121 -32 -15 -45 -16 -82 -7 -59 15 -81 14 -99 -4 -22 -22 -64 -36 -91 -29
-27 7 -60 40 -69 71 -9 30 18 79 53 97 37 20 43 38 30 91 -14 56 -32 71 -92
78 -32 3 -63 15 -92 36 -24 17 -52 31 -62 31 -11 0 -38 -20 -60 -44 -55 -59
-98 -69 -161 -35 -69 38 -115 115 -137 234 -8 39 -23 106 -34 150 -12 44 -21
96 -21 116 0 40 -19 54 -91 65 -60 10 -76 -10 -77 -94 -1 -37 -10 -98 -21
-137 -22 -79 -22 -78 42 -169 25 -35 42 -74 51 -117 7 -35 25 -89 39 -119 41
-90 97 -268 97 -311 0 -16 -9 -55 -20 -86 -15 -42 -20 -83 -20 -153 0 -110
-12 -192 -40 -280 -25 -77 -25 -122 -2 -142 23 -21 185 -42 259 -34 155 18
241 18 324 1 45 -9 95 -23 110 -31 32 -16 79 -80 79 -107 0 -10 9 -36 21 -58
17 -35 20 -52 14 -113 -6 -63 -4 -78 19 -129 20 -44 26 -71 24 -115 -3 -51 1
-62 24 -90 16 -20 29 -50 34 -80 4 -26 14 -58 24 -72 30 -45 39 -82 57 -230 4
-41 13 -62 35 -85 15 -16 33 -48 39 -70 6 -22 15 -56 21 -77 6 -20 8 -51 4
-70 -4 -18 -9 -58 -12 -88 -5 -50 -2 -59 30 -109 51 -78 55 -124 20 -230 -15
-47 -37 -100 -47 -118 -10 -18 -23 -58 -28 -90 -18 -114 -56 -234 -88 -276
-17 -23 -49 -76 -71 -117 -22 -43 -70 -108 -109 -150 -114 -122 -121 -130
-138 -163 -18 -37 -41 -56 -64 -57 -16 0 -76 -62 -128 -130 -13 -18 -43 -40
-65 -50 -23 -10 -57 -34 -76 -55 -19 -20 -51 -44 -70 -52 -19 -9 -55 -33 -80
-53 -78 -64 -163 -117 -224 -139 -38 -14 -80 -41 -117 -75 -32 -29 -76 -61
-96 -72 -21 -10 -47 -26 -58 -35 -11 -10 -40 -28 -65 -42 -36 -20 -46 -31 -48
-55 -3 -32 38 -124 89 -199 16 -23 29 -45 29 -49 0 -4 6 -15 14 -23 8 -9 49
-85 91 -170 88 -176 93 -203 51 -275 -34 -58 -127 -150 -186 -184 -25 -14 -63
-38 -85 -53 -163 -109 -391 -186 -524 -177 -102 8 -127 26 -180 133 -48 97
-49 100 -82 192 -12 34 -30 70 -41 80 -18 16 -23 16 -96 -2 -76 -20 -77 -20
-102 -70 -20 -40 -32 -52 -63 -62 -53 -18 -94 -7 -125 35 -69 90 -98 95 -158
30 -80 -87 -120 -181 -109 -257 12 -93 10 -110 -21 -142 -27 -29 -33 -31 -86
-27 -67 5 -87 20 -118 86 -29 62 -58 92 -89 92 -71 0 -131 83 -131 181 0 37
-8 70 -25 104 -13 28 -25 66 -25 86 0 90 -101 99 -213 20 -23 -16 -60 -33 -82
-37 -22 -4 -55 -14 -74 -21 -30 -13 -39 -13 -76 1 -52 20 -65 47 -65 129 0 54
4 66 30 97 33 39 33 37 34 102 1 36 8 55 32 85 37 46 56 81 50 91 -2 4 2 32
10 62 19 75 17 122 -10 214 -18 63 -30 85 -55 105 -18 14 -53 45 -78 69 -26
23 -52 42 -59 42 -7 0 -27 -12 -44 -27 -22 -18 -47 -28 -80 -31 -42 -4 -52 -1
-74 21 -29 30 -48 93 -40 134 3 18 0 41 -7 54 -9 17 -12 63 -10 164 2 130 1
142 -19 163 -27 28 -53 28 -93 -2 -18 -14 -45 -28 -62 -32 -16 -4 -39 -13 -50
-20 -11 -8 -38 -14 -60 -14 -62 1 -105 45 -105 109 0 35 53 137 115 222 25 33
45 70 45 81 0 11 -11 34 -25 52 -36 47 -34 108 5 169 29 46 40 109 21 121 -4
3 -11 20 -15 38 -8 42 26 113 94 193 77 91 64 135 -40 135 -53 0 -61 3 -84 31
-23 27 -26 39 -26 105 0 42 5 85 11 97 7 11 43 53 81 91 39 40 83 97 100 131
29 57 30 63 23 135 -11 107 -10 117 25 200 17 41 38 95 47 120 9 25 20 54 26
65 34 64 48 99 58 145 13 62 75 184 122 242 19 24 38 61 42 83 4 26 21 55 46
82 21 23 39 46 39 50 -1 5 -7 35 -14 69 -7 34 -11 86 -8 117 4 48 1 60 -22 89
-35 47 -41 87 -26 170 12 61 12 77 -2 127 -26 88 -68 194 -85 214 -24 25 -61
21 -100 -13 -49 -44 -87 -43 -178 2 -211 107 -376 337 -436 607 -27 119 -25
216 6 316 31 104 47 118 133 123 37 2 72 8 77 14 6 5 10 42 10 83 0 70 2 76
34 108 18 20 72 54 120 77 68 34 97 42 136 42 57 -1 75 10 75 47 1 42 36 108
67 124 15 8 73 27 128 42 55 16 145 47 201 71 109 46 143 59 364 135 345 120
541 166 755 176 l130 6 46 46 c39 38 47 54 53 96 12 91 53 118 172 116 123 -1
264 -37 389 -98 92 -45 126 -72 185 -148 46 -57 56 -64 127 -90 43 -15 130
-48 193 -72 63 -25 131 -50 150 -55 46 -13 363 -168 465 -228 255 -149 354
-217 484 -329 100 -87 389 -375 442 -441 20 -25 40 -42 44 -38 4 4 -15 76 -43
160 -141 429 -363 772 -692 1070 -358 323 -818 536 -1326 612 -227 34 -300 39
-544 33 -244 -5 -379 -19 -585 -62 -747 -156 -1349 -604 -1677 -1250 -95 -187
-186 -434 -214 -580 -3 -20 -13 -39 -21 -42 -13 -5 -93 9 -443 77 -52 10 -162
31 -245 45 -259 47 -438 84 -446 92 -13 13 60 310 119 488 390 1181 1269 2007
2467 2320 223 58 411 91 685 119 152 16 652 20 810 6z m-62 -1290 c53 -6 129
-15 167 -21 82 -11 352 -75 377 -89 10 -6 27 -10 37 -10 11 0 23 -4 26 -10 3
-5 16 -10 29 -10 12 0 26 -4 31 -8 6 -5 26 -15 45 -22 66 -24 211 -93 335
-160 63 -33 269 -170 273 -182 2 -4 9 -8 15 -8 13 0 367 -350 367 -363 0 -4 9
-18 21 -30 24 -25 126 -175 160 -234 60 -103 159 -309 159 -330 0 -36 -25 -20
-146 96 -61 58 -131 122 -155 142 -81 65 -280 200 -324 218 -11 5 -37 23 -58
39 -21 17 -127 74 -235 127 -108 53 -206 102 -217 108 -51 28 -95 47 -109 47
-8 0 -18 5 -21 10 -3 6 -17 10 -30 10 -13 0 -27 5 -30 10 -3 6 -15 10 -25 10
-11 0 -35 9 -55 20 -20 11 -44 20 -55 20 -10 0 -22 5 -25 10 -3 6 -15 10 -26
10 -10 0 -27 4 -37 9 -9 5 -30 15 -47 22 -16 7 -70 52 -120 100 -97 95 -200
157 -304 184 -31 7 -80 21 -109 29 -82 23 -189 30 -256 16 -68 -14 -129 -62
-144 -113 -29 -97 -36 -119 -46 -124 -5 -4 -51 -10 -100 -14 -147 -13 -327
-42 -416 -67 -19 -6 -80 -22 -135 -36 -93 -24 -128 -35 -180 -56 -11 -4 -36
-13 -55 -20 -19 -7 -44 -16 -55 -20 -11 -4 -40 -13 -63 -20 -24 -6 -59 -20
-78 -31 -19 -10 -43 -19 -54 -19 -10 0 -22 -4 -25 -10 -3 -5 -13 -10 -21 -10
-8 0 -34 -9 -56 -20 -23 -11 -48 -20 -55 -20 -7 0 -28 -9 -48 -20 -20 -11 -44
-20 -53 -20 -10 0 -22 -4 -27 -9 -6 -4 -39 -14 -75 -21 -36 -6 -76 -18 -90
-25 -41 -21 -110 -102 -110 -128 0 -31 -18 -47 -54 -47 -17 0 -76 -23 -131
-50 -55 -27 -106 -50 -112 -50 -19 0 -15 32 7 60 11 14 20 29 20 33 0 11 96
152 139 206 47 59 353 371 363 371 4 0 43 27 86 60 44 33 82 60 86 60 4 0 34
18 66 40 32 22 64 40 69 40 6 0 11 5 11 10 0 6 5 10 11 10 9 0 129 54 222 101
22 10 43 19 48 19 5 0 28 9 52 19 23 11 60 25 82 32 22 6 49 15 60 20 61 24
302 75 445 95 188 25 585 32 758 14z m-2618 -1385 c0 -8 -4 -15 -10 -15 -5 0
-10 7 -10 15 0 8 5 15 10 15 6 0 10 -7 10 -15z"/>
<path d="M4928 9148 c-28 -10 -38 -41 -18 -53 12 -8 13 -66 1 -97 -5 -13 -21
-62 -35 -109 -17 -54 -35 -94 -51 -109 -28 -26 -31 -41 -13 -69 9 -15 9 -28 0
-58 -7 -21 -23 -76 -36 -123 -34 -116 -56 -179 -67 -186 -15 -9 -10 -41 7 -48
8 -3 25 -1 36 5 15 8 26 8 43 -1 12 -7 31 -10 41 -8 15 3 18 11 16 42 -4 36
21 164 38 196 6 11 21 14 56 12 89 -5 90 -5 98 -69 3 -32 9 -79 12 -105 4 -32
2 -48 -5 -48 -17 0 -13 -40 4 -46 9 -4 29 -1 46 6 23 10 33 10 42 1 16 -16 52
-14 67 4 10 13 10 19 -4 34 -12 13 -21 58 -32 152 -21 189 -21 205 0 228 17
19 17 21 -7 53 -34 45 -37 59 -47 205 -7 107 -6 132 7 152 13 20 13 25 1 37
-11 12 -19 11 -51 -6 -46 -25 -53 -25 -84 0 -29 22 -28 22 -65 8z m79 -305 c4
-16 8 -66 8 -113 l0 -85 -31 -3 c-19 -2 -38 3 -47 12 -16 16 -15 23 16 110 6
17 12 37 12 45 3 29 16 61 25 61 6 0 13 -12 17 -27z"/>
<path d="M3945 9084 c-16 -9 -37 -23 -46 -31 -12 -10 -28 -12 -54 -7 -64 12
-116 -39 -67 -65 36 -19 86 -286 62 -331 -10 -19 -8 -26 13 -49 13 -14 28 -39
31 -56 28 -124 32 -141 47 -228 10 -60 9 -70 -6 -87 -16 -17 -16 -19 4 -29 27
-15 54 -14 77 4 12 9 31 12 51 9 35 -7 103 21 103 41 0 7 -13 18 -30 23 -16 6
-34 21 -39 34 -14 36 -59 282 -54 295 3 7 20 17 40 23 29 10 37 9 54 -6 17
-16 22 -16 30 -4 18 29 -9 160 -33 160 -5 0 -13 -11 -18 -24 -9 -25 -53 -38
-87 -25 -21 8 -38 69 -49 176 -8 72 0 88 53 102 73 21 138 -27 149 -109 4 -27
12 -54 19 -60 18 -15 69 6 61 25 -3 8 -13 57 -22 107 -19 109 -25 124 -50 120
-11 -2 -26 -3 -34 -2 -125 10 -177 9 -205 -6z"/>
<path d="M5460 9085 c-10 -12 -10 -21 -2 -40 9 -20 8 -42 -9 -108 -11 -45 -24
-102 -30 -127 -5 -24 -21 -56 -35 -72 -24 -24 -26 -30 -15 -56 10 -24 9 -44
-4 -107 -9 -43 -18 -82 -21 -87 -3 -4 -9 -33 -14 -64 -6 -36 -18 -66 -32 -81
-27 -29 -16 -56 27 -61 16 -2 39 -11 52 -19 19 -13 29 -14 48 -5 27 12 31 32
15 62 -8 14 -2 51 20 142 17 68 34 137 38 153 4 17 14 30 22 30 17 0 36 -133
42 -302 5 -130 16 -154 84 -184 54 -23 74 -24 99 -5 16 12 17 17 6 44 -14 33
-10 58 30 209 10 39 19 81 19 92 0 12 16 39 36 61 35 39 36 41 19 60 -18 20
-18 41 4 130 28 115 46 167 68 191 22 24 23 28 8 43 -9 9 -32 16 -50 16 -19 0
-37 5 -40 10 -3 6 -24 10 -46 10 -32 0 -39 -3 -39 -19 0 -11 5 -23 11 -27 12
-7 8 -55 -10 -129 -30 -121 -40 -173 -41 -197 0 -21 -5 -28 -20 -28 -18 0 -20
7 -22 63 -3 116 -6 151 -18 227 -14 84 -22 100 -75 153 -30 30 -45 37 -75 37
-21 0 -43 -7 -50 -15z"/>
<path d="M3300 8884 c-22 -20 -40 -44 -40 -53 0 -9 -5 -22 -11 -28 -18 -18
-29 -169 -17 -227 14 -62 15 -104 5 -133 -6 -17 -3 -24 19 -35 15 -7 30 -20
34 -28 73 -161 173 -277 261 -300 27 -7 50 -7 83 2 41 11 51 19 86 76 38 60
40 67 40 145 0 72 -18 195 -36 240 -3 9 -1 25 6 36 13 25 0 57 -27 65 -10 3
-33 34 -52 68 -69 126 -174 208 -266 208 -38 0 -51 -6 -85 -36z m137 -71 c10
-10 29 -47 42 -83 12 -36 27 -75 33 -87 6 -13 8 -42 4 -72 -4 -28 -3 -51 1
-51 25 -1 56 -44 79 -110 14 -41 34 -92 44 -113 14 -29 16 -46 9 -70 -11 -38
-17 -44 -51 -52 -21 -6 -32 -1 -51 19 -14 15 -27 37 -30 49 -3 12 -20 60 -37
106 -24 67 -29 93 -24 127 6 40 4 43 -24 58 -20 10 -33 26 -37 45 -3 17 -19
64 -35 104 -32 84 -31 106 8 130 34 21 44 21 69 0z"/>
<path d="M6302 8818 c-7 -7 -12 -26 -12 -44 0 -50 -137 -227 -196 -253 -40
-18 -43 -22 -38 -49 6 -31 -13 -79 -41 -102 -9 -7 -33 -39 -53 -69 -48 -74
-80 -111 -132 -150 -21 -16 -22 -21 -11 -35 7 -9 25 -16 39 -16 14 0 38 -12
53 -26 36 -34 59 -26 59 19 0 25 13 53 48 100 26 37 54 69 64 72 24 8 130 -46
123 -63 -3 -8 -12 -49 -21 -91 -18 -87 -29 -111 -49 -111 -22 0 -18 -28 4 -40
11 -5 33 -10 49 -10 17 0 32 -6 36 -15 3 -8 14 -15 24 -15 22 0 46 25 38 38
-3 5 11 72 30 148 20 77 39 149 42 162 2 12 14 30 26 40 32 25 39 41 26 57
-18 21 -7 116 25 225 21 73 35 101 58 121 28 24 28 26 12 43 -13 13 -27 16
-54 11 -32 -5 -40 -2 -71 30 -35 37 -58 43 -78 23z m-20 -314 c-5 -56 -45
-174 -59 -174 -25 0 -73 30 -73 45 0 9 17 34 38 58 21 23 47 57 58 75 22 38
40 36 36 -4z"/>
<path d="M6807 8542 c-10 -10 -17 -21 -17 -24 0 -3 -33 -54 -73 -114 -59 -90
-80 -113 -115 -129 -38 -18 -42 -23 -42 -56 0 -40 -20 -87 -49 -113 -11 -10
-43 -53 -71 -96 -28 -42 -62 -82 -75 -88 -14 -7 -25 -20 -25 -30 0 -23 30 -52
53 -52 9 0 24 -12 34 -27 18 -30 42 -53 54 -53 18 0 39 34 39 63 0 21 14 51
40 87 21 30 60 85 85 123 25 37 50 67 55 67 15 0 69 -50 75 -71 8 -23 -36 -99
-118 -208 -47 -62 -49 -67 -43 -114 3 -27 10 -55 17 -63 14 -17 71 -28 104
-20 21 5 25 12 25 44 0 21 9 48 20 62 11 14 20 28 20 33 0 4 26 42 57 85 63
84 74 132 40 170 -21 24 -9 36 44 46 71 13 140 88 164 179 11 43 10 55 -6 99
-18 50 -53 98 -71 98 -5 0 -26 11 -46 25 -20 14 -46 25 -59 25 -31 0 -53 10
-53 25 0 11 -31 45 -42 45 -3 0 -12 -8 -21 -18z m147 -168 c14 -15 26 -33 26
-41 0 -39 -79 -158 -121 -182 -22 -12 -29 -12 -54 0 -50 25 -52 41 -14 90 19
24 52 70 73 102 21 31 44 57 51 57 7 0 24 -12 39 -26z"/>
<path d="M2625 8490 c-5 -16 -15 -20 -48 -20 -140 0 -242 -172 -177 -301 25
-50 83 -114 121 -134 14 -8 53 -17 87 -21 39 -4 72 -14 89 -27 25 -20 27 -20
55 -4 67 39 151 8 187 -68 27 -58 26 -80 -4 -110 -26 -27 -85 -34 -127 -14
-28 12 -88 101 -88 129 0 11 -7 20 -16 20 -24 0 -54 -19 -54 -36 0 -8 -11 -20
-25 -26 -32 -14 -32 -36 -1 -48 13 -4 33 -23 44 -42 40 -64 75 -89 143 -100
93 -16 135 -5 190 50 62 62 77 111 61 200 -21 128 -107 212 -231 226 -36 4
-63 14 -78 28 -21 20 -24 20 -41 5 -23 -21 -102 -22 -142 -2 -66 34 -92 122
-47 162 12 11 32 26 45 32 32 17 73 -10 117 -76 19 -29 41 -53 48 -53 6 0 26
11 42 24 23 19 28 28 20 39 -105 152 -132 187 -147 187 -9 0 -20 -9 -23 -20z"/>
<path d="M2089 8100 c-77 -85 -81 -120 -15 -120 23 0 47 -16 107 -72 43 -40
99 -90 124 -112 82 -70 51 -75 -79 -12 -87 41 -128 60 -189 85 -41 16 -100 13
-150 -8 -35 -15 -47 -27 -61 -61 -19 -49 -10 -70 29 -62 21 4 38 -8 93 -61 37
-36 80 -76 95 -89 16 -13 32 -38 36 -58 6 -31 11 -36 44 -41 53 -9 251 -192
255 -238 2 -21 9 -31 20 -31 24 0 124 108 120 128 -2 11 -17 19 -41 23 -28 4
-54 22 -105 71 -37 35 -92 87 -122 116 -38 35 -52 54 -45 61 7 7 20 6 40 -5
17 -9 57 -27 90 -41 33 -13 103 -45 155 -71 104 -51 158 -59 202 -30 29 19 73
102 63 118 -3 5 -22 10 -42 10 -30 0 -46 10 -107 69 -39 38 -87 84 -107 103
-41 37 -59 67 -59 97 0 21 -7 25 -47 21 -15 -1 -52 27 -120 90 -83 77 -99 97
-103 128 -7 53 -28 50 -81 -8z"/>
<path d="M7310 8038 c-58 -19 -149 -72 -221 -129 -15 -12 -42 -24 -60 -28 -31
-6 -35 -11 -39 -48 -4 -24 -18 -54 -34 -74 -34 -40 -92 -161 -101 -212 -16
-82 17 -160 78 -192 36 -19 121 -27 153 -15 33 13 114 88 114 107 0 14 -43 63
-56 63 -4 0 -26 -18 -49 -39 -51 -50 -80 -58 -122 -31 -27 16 -33 26 -33 52 1
27 15 48 74 112 66 71 76 79 111 80 38 1 40 3 48 42 6 35 23 57 102 133 81 78
99 91 128 91 40 0 67 -25 67 -64 0 -39 -15 -63 -74 -117 l-51 -47 29 -31 c17
-17 35 -31 42 -31 18 0 194 169 194 186 0 7 -9 16 -20 19 -11 4 -20 15 -20 26
0 29 -34 90 -67 120 -24 22 -92 50 -119 49 -5 -1 -38 -10 -74 -22z"/>
<path d="M7719 7678 c-16 -32 -54 -63 -119 -98 -30 -17 -71 -39 -90 -51 -24
-13 -46 -18 -68 -15 -29 4 -34 1 -50 -32 -17 -35 -57 -69 -136 -115 -55 -31
-68 -39 -102 -64 -16 -12 -48 -23 -69 -25 -52 -4 -57 -28 -16 -78 17 -22 31
-47 31 -58 0 -19 39 -62 56 -62 5 0 22 18 37 40 16 22 32 40 38 40 5 0 41 21
80 48 144 95 147 97 171 76 22 -21 58 -86 58 -106 0 -13 -120 -98 -138 -98 -5
0 -29 -18 -54 -39 -51 -45 -87 -58 -117 -41 -17 9 -22 8 -27 -5 -8 -20 12 -68
37 -91 10 -9 19 -25 19 -36 0 -25 64 -93 78 -84 7 4 10 17 6 31 -5 20 4 30 68
73 168 113 209 134 250 127 37 -7 38 -6 57 37 17 40 30 51 141 116 68 40 133
72 146 72 33 0 31 34 -3 75 -16 17 -36 46 -45 64 -21 37 -43 40 -70 6 -11 -14
-24 -25 -29 -25 -5 0 -42 -22 -82 -48 -117 -78 -124 -80 -150 -51 -32 35 -57
76 -57 93 0 15 55 54 163 115 40 22 69 31 90 29 30 -3 32 -1 35 34 3 31 -2 40
-27 59 -18 13 -31 32 -31 44 0 22 -38 65 -58 65 -6 0 -17 -10 -23 -22z"/>
<path d="M4773 7603 c-8 -3 -13 -23 -13 -48 0 -35 -7 -52 -39 -92 -21 -26 -56
-64 -77 -84 l-39 -36 -110 -1 c-113 0 -292 -22 -380 -46 -261 -72 -614 -190
-700 -233 -43 -22 -251 -95 -325 -113 -63 -17 -75 -28 -54 -51 10 -11 28 -19
42 -19 16 0 41 -16 72 -47 41 -41 49 -56 55 -100 8 -63 1 -99 -36 -181 -30
-66 -135 -182 -165 -182 -18 0 -37 46 -28 73 7 23 -14 67 -32 67 -17 0 -30 25
-37 70 -7 42 -64 170 -76 170 -20 0 -138 -60 -163 -83 -24 -23 -26 -28 -17
-68 15 -63 52 -133 75 -137 34 -7 39 -21 15 -46 -29 -31 -23 -67 14 -84 29
-13 33 -37 8 -46 -29 -11 -156 6 -196 26 -23 11 -49 37 -65 63 -34 55 -48 61
-66 27 -28 -56 -39 -152 -27 -232 45 -286 194 -513 406 -617 47 -23 57 -25 65
-13 6 10 -1 25 -24 51 -67 74 -69 211 -4 285 39 44 58 44 58 1 0 -42 26 -67
68 -67 34 0 27 11 105 -160 61 -133 120 -291 148 -395 18 -70 18 -70 -3 -122
-18 -43 -19 -57 -10 -78 12 -25 45 -34 57 -15 10 15 35 12 42 -6 3 -9 -4 -34
-17 -56 -19 -33 -23 -56 -23 -132 0 -77 4 -101 26 -153 31 -71 33 -83 13 -83
-7 0 -34 -9 -60 -20 -47 -21 -62 -50 -25 -50 13 0 18 -4 13 -12 -4 -7 -7 -26
-6 -43 2 -22 -5 -37 -23 -53 -22 -20 -25 -20 -34 -4 -9 15 -11 15 -33 -6 -32
-29 -108 -182 -108 -216 0 -14 -4 -34 -9 -44 -23 -42 -71 -149 -71 -158 0 -5
-13 -36 -30 -69 -16 -33 -30 -72 -30 -87 0 -16 -4 -28 -10 -28 -5 0 -10 -4
-10 -10 0 -5 6 -10 13 -10 17 0 47 56 47 88 0 52 53 135 146 227 50 50 103
108 118 131 31 48 49 101 35 109 -5 4 -9 15 -9 26 0 14 7 19 25 19 16 0 25 -6
25 -15 0 -8 5 -24 12 -34 14 -22 -4 -87 -33 -125 -9 -11 -20 -32 -24 -44 -9
-31 -109 -132 -130 -132 -9 0 -25 -15 -36 -34 -11 -19 -28 -36 -39 -39 -16 -4
-18 -11 -13 -41 3 -22 1 -42 -7 -51 -7 -9 -10 -27 -7 -44 4 -17 0 -36 -8 -47
-7 -11 -11 -32 -8 -49 3 -22 -1 -35 -14 -48 -19 -16 -20 -16 -42 13 -22 31
-48 32 -35 1 30 -71 -42 -225 -160 -340 -62 -62 -78 -93 -35 -70 39 20 41 3 6
-36 -49 -54 -31 -73 21 -23 70 70 144 85 206 43 46 -31 50 -31 42 1 -5 18 -2
32 9 44 13 14 14 23 6 39 -16 29 -13 62 6 83 26 29 2 46 -32 24 -24 -16 -26
-22 -23 -74 l3 -57 -49 3 c-27 1 -66 -3 -88 -9 -22 -5 -43 -8 -46 -4 -9 8 90
105 101 98 11 -7 77 56 77 74 0 17 -10 16 -32 -4 -28 -25 -29 -13 -5 40 15 33
27 45 38 42 21 -7 63 42 77 90 6 23 25 54 42 70 16 16 30 38 30 50 0 29 60 85
92 85 28 0 42 13 67 63 20 40 62 48 95 18 12 -11 39 -24 61 -29 35 -7 41 -12
47 -42 3 -19 9 -45 13 -56 4 -14 2 -23 -8 -27 -16 -6 -40 6 -35 18 3 10 -42
25 -87 29 -48 4 -116 -32 -173 -93 -78 -83 -151 -213 -138 -246 8 -22 37 -18
43 5 3 11 17 23 30 26 52 13 97 -70 87 -159 -5 -41 -45 -130 -64 -142 -5 -3
-10 -16 -10 -28 0 -20 -52 -67 -74 -67 -4 0 -43 -32 -87 -72 -98 -88 -219
-236 -219 -268 0 -16 19 -12 47 10 31 24 43 18 43 -20 0 -31 -9 -50 -78 -163
-40 -63 -54 -113 -32 -105 5 2 41 57 80 123 77 131 86 172 50 210 l-21 22 33
44 c44 57 175 170 241 206 49 28 221 94 278 108 16 4 30 2 34 -5 10 -16 -8
-26 -57 -34 -91 -15 -241 -95 -346 -187 -48 -41 -97 -84 -109 -94 -13 -11 -23
-25 -23 -32 0 -15 26 -17 35 -3 3 6 13 10 20 10 11 0 13 -8 8 -32 -8 -40 -49
-126 -73 -153 -22 -24 -60 -92 -60 -105 0 -6 11 -10 24 -10 31 0 42 -16 49
-70 5 -39 2 -50 -18 -75 -20 -24 -26 -27 -34 -16 -5 7 -6 25 -1 40 8 29 3 52
-14 63 -21 14 -23 8 -24 -57 -1 -70 -8 -84 -99 -206 -58 -78 -111 -175 -101
-185 9 -8 38 14 38 28 0 14 122 178 132 178 4 0 8 -9 8 -20 0 -24 4 -25 35 -4
16 10 34 14 51 10 15 -4 32 -2 41 6 12 10 18 8 32 -11 10 -13 25 -21 36 -19
13 2 21 -4 23 -17 2 -11 18 -34 34 -52 29 -30 30 -34 18 -63 -30 -71 28 -33
87 57 33 52 53 67 53 40 0 -7 -18 -50 -40 -96 -22 -45 -40 -87 -40 -92 0 -22
20 -5 46 39 15 26 49 71 77 101 57 63 173 154 186 146 15 -9 -11 -63 -36 -76
-13 -7 -23 -19 -23 -28 0 -25 -36 -77 -84 -124 -24 -23 -46 -53 -48 -67 -2
-20 -9 -25 -36 -26 -19 -1 -42 -11 -52 -22 -10 -11 -24 -22 -31 -24 -7 -2 -13
-13 -14 -24 -5 -59 -49 -205 -72 -241 -16 -25 -14 -64 4 -70 6 -3 19 10 28 26
10 21 23 31 39 31 28 0 136 109 136 138 0 10 9 30 21 43 32 37 89 135 89 153
0 9 11 21 25 26 14 5 30 21 35 34 5 13 15 28 23 33 8 4 18 15 23 24 9 17 57
72 150 174 30 33 62 69 71 79 12 14 18 16 21 7 5 -16 -71 -131 -146 -218 -32
-37 -71 -86 -87 -108 -17 -22 -38 -49 -47 -60 -20 -23 -78 -116 -121 -193 -22
-41 -27 -59 -21 -80 11 -37 12 -41 13 -90 1 -39 4 -43 30 -48 16 -4 41 -21 56
-40 29 -36 62 -44 71 -19 9 22 34 18 34 -6 0 -11 -9 -40 -21 -65 l-20 -45 20
-55 c22 -58 26 -120 11 -194 -4 -26 -4 -52 1 -61 6 -12 3 -24 -11 -42 -11 -14
-20 -30 -20 -36 0 -6 -16 -28 -35 -50 -34 -37 -44 -61 -26 -61 11 0 101 96
101 108 0 5 18 32 40 62 36 49 49 82 77 196 11 49 -4 123 -31 153 -17 19 -17
22 -1 64 15 40 15 47 1 74 -11 23 -12 33 -4 41 7 7 13 24 14 39 1 16 9 60 18
98 20 81 32 133 81 345 20 85 45 180 56 210 12 30 24 70 29 88 13 51 51 145
66 161 26 29 26 -13 -1 -70 -13 -30 -25 -68 -25 -85 0 -16 -7 -39 -15 -50 -8
-10 -15 -32 -15 -49 0 -16 -7 -39 -15 -49 -8 -11 -12 -29 -9 -42 3 -12 -1 -36
-10 -52 -9 -17 -16 -42 -16 -55 0 -14 -10 -46 -22 -73 -13 -29 -25 -84 -30
-134 -4 -47 -10 -103 -12 -125 -2 -22 -9 -58 -15 -80 -13 -49 -14 -148 -2
-160 6 -6 6 -37 1 -80 -5 -42 -5 -76 1 -87 18 -33 -26 -211 -63 -252 -4 -6 -8
-17 -8 -26 0 -9 -13 -31 -30 -50 -16 -19 -30 -42 -30 -50 -1 -20 -24 -50 -39
-50 -6 0 -27 -25 -47 -56 -20 -31 -54 -74 -76 -96 -30 -30 -41 -50 -43 -74 -2
-40 5 -42 45 -13 21 16 37 20 59 16 27 -6 34 -2 62 33 25 31 37 38 55 34 16
-4 33 4 62 30 22 20 43 36 47 36 4 0 30 -18 57 -40 58 -46 75 -48 112 -19 33
26 33 42 1 63 -14 9 -25 23 -25 31 0 21 14 19 35 -5 10 -11 23 -20 29 -20 6 0
24 -25 40 -56 l30 -56 -25 -19 c-13 -10 -27 -19 -30 -19 -4 0 -16 -19 -28 -43
l-21 -42 27 -25 c26 -24 28 -31 30 -120 2 -67 7 -98 18 -109 19 -19 30 -8 16
18 -10 17 -6 25 25 55 21 20 41 36 46 36 4 0 8 -14 8 -31 0 -18 9 -53 21 -78
12 -25 32 -71 46 -101 34 -77 37 -82 56 -94 23 -15 32 0 19 29 -18 38 -16 154
2 161 8 3 18 20 22 37 3 18 13 41 20 52 8 11 14 27 14 37 0 9 8 22 19 27 10 6
21 21 25 35 3 13 15 26 26 29 11 3 20 12 20 21 0 9 21 37 46 63 62 64 101 145
86 178 -16 36 -65 57 -110 49 -60 -11 -97 -35 -178 -114 -80 -78 -115 -138
-129 -217 -7 -45 -29 -58 -40 -24 -3 10 -19 30 -36 45 l-31 28 26 27 c14 15
26 35 26 44 0 10 16 41 35 69 19 29 40 75 46 103 10 45 9 57 -6 89 -33 69
-103 93 -173 57 -22 -11 -43 -17 -46 -12 -5 8 43 96 75 137 8 10 41 45 74 78
73 74 96 108 92 138 -2 21 1 23 45 20 26 -2 63 2 82 9 20 7 39 9 43 5 10 -10
-43 -53 -76 -61 -40 -10 -51 -24 -51 -64 0 -27 -7 -44 -25 -61 -22 -21 -25
-40 -7 -40 4 0 22 13 40 29 17 16 40 31 49 33 10 2 22 13 28 25 5 12 22 28 37
34 21 9 28 18 28 40 0 15 11 45 25 65 31 46 31 77 0 133 -30 51 -27 86 13 170
28 59 61 80 136 86 23 2 62 8 88 14 26 6 53 8 61 5 13 -5 64 -112 82 -174 4
-14 13 -38 21 -55 17 -36 94 -252 101 -280 5 -24 -68 -85 -101 -85 -12 0 -46
-20 -76 -43 -116 -92 -160 -268 -100 -400 11 -23 20 -52 20 -65 0 -12 10 -44
22 -70 40 -87 74 -105 62 -33 -4 26 0 57 14 97 27 76 35 112 36 148 2 66 52
24 67 -57 13 -70 27 -97 49 -97 16 0 21 5 19 23 -6 46 73 147 115 147 14 0 76
-144 76 -175 0 -8 5 -27 11 -42 6 -15 15 -37 20 -48 4 -11 17 -47 29 -79 27
-75 79 -186 98 -208 37 -44 238 -10 397 66 178 85 375 237 391 302 4 14 -14
60 -55 140 -74 146 -128 244 -146 264 -7 8 -38 62 -67 120 -67 128 -79 150
-96 168 -21 23 10 47 100 77 45 14 95 37 111 51 16 13 34 24 41 24 11 0 153
112 166 131 3 4 32 17 65 30 33 12 72 30 87 40 14 11 30 19 35 19 5 0 45 29
88 65 43 36 84 65 91 65 8 0 39 22 69 50 30 27 70 56 88 63 18 8 41 27 52 43
10 16 26 34 35 41 9 7 25 33 35 58 21 56 10 95 -27 95 -26 0 -193 -125 -226
-169 -12 -17 -27 -31 -32 -31 -6 0 -34 -19 -63 -43 -74 -60 -212 -141 -301
-177 -42 -16 -80 -30 -85 -30 -5 0 -38 -17 -73 -37 -34 -20 -83 -47 -107 -59
-24 -13 -48 -28 -55 -33 -6 -5 -53 -26 -105 -47 -68 -27 -98 -35 -109 -27 -22
13 -203 334 -199 353 2 13 23 14 137 12 124 -3 140 -2 200 21 36 14 101 30
145 37 123 18 190 35 315 80 63 23 131 46 150 52 82 24 189 98 190 129 0 9 17
28 38 42 61 43 146 136 214 237 36 52 68 103 71 113 4 9 17 21 31 27 13 5 32
21 43 36 10 15 41 52 69 83 56 62 79 109 71 143 -4 12 0 29 7 38 7 8 20 36 30
62 11 31 32 59 62 83 71 59 114 108 109 126 -3 9 1 37 10 63 12 34 13 51 5 66
-8 15 -6 34 9 77 20 64 19 73 -10 73 -17 0 -19 6 -15 54 3 50 1 56 -25 75 -15
12 -33 21 -39 21 -18 0 -31 -49 -18 -69 9 -15 8 -24 -6 -45 -12 -19 -15 -37
-10 -60 5 -29 2 -36 -16 -46 -12 -6 -23 -10 -25 -8 -2 2 3 31 11 63 9 33 15
67 15 75 -1 31 -19 166 -26 191 -6 25 -5 26 32 25 35 -1 38 1 35 24 -2 14 -6
45 -9 70 -3 26 -18 63 -36 89 -22 32 -30 55 -29 82 2 42 -21 60 -47 35 -13
-14 -12 -21 9 -66 13 -27 20 -53 17 -57 -4 -4 -21 3 -37 16 -26 19 -31 20 -36
6 -9 -24 -31 -18 -54 15 -12 17 -26 30 -32 30 -5 0 -23 9 -39 21 -34 24 -37
52 -9 94 11 17 20 33 20 37 0 5 -21 18 -47 30 -71 32 -142 122 -82 103 32 -11
19 15 -22 43 -25 17 -42 22 -66 17 -26 -5 -34 -2 -43 15 -20 37 -4 43 92 37
76 -5 93 -9 119 -31 17 -14 36 -26 42 -26 7 0 22 -15 34 -32 12 -18 37 -37 55
-42 21 -7 34 -19 38 -35 3 -14 11 -26 18 -29 20 -6 14 55 -10 101 -17 34 -21
60 -22 135 -1 87 -3 94 -26 112 -21 16 -23 21 -12 44 28 62 -72 92 -268 81
-176 -10 -227 -10 -377 0 -148 9 -150 11 -137 80 5 30 3 39 -15 51 -26 19 -27
37 -1 72 46 62 61 129 67 292 5 127 10 167 28 219 l23 63 -22 87 c-13 47 -44
135 -69 194 -26 60 -47 120 -47 133 0 33 -23 76 -78 147 -49 64 -48 63 -16
177 26 93 24 191 -4 230 -12 16 -22 32 -22 36 0 3 -19 28 -41 56 -28 33 -38
53 -32 59 11 11 350 -73 476 -117 77 -27 107 -30 107 -10 0 20 -91 101 -146
129 -27 14 -78 56 -114 92 -71 73 -96 90 -152 100 -32 6 -41 3 -64 -20 l-26
-26 -79 76 c-71 70 -82 77 -111 73 -18 -3 -40 -8 -49 -12 -13 -5 -21 1 -32 24
-25 48 -15 58 46 49 131 -21 218 -49 492 -162 124 -50 154 -65 310 -151 125
-69 119 -66 216 -123 74 -44 99 -52 99 -30 0 11 -61 57 -75 57 -4 0 -32 17
-63 39 -169 114 -405 230 -692 337 -52 20 -104 40 -115 44 -11 4 -65 18 -120
30 -102 22 -125 32 -125 56 0 7 -22 32 -49 55 -33 27 -52 52 -57 73 -3 17 -13
39 -22 49 -24 27 -2 41 34 22 16 -8 35 -15 42 -15 7 0 27 -7 45 -17 18 -9 46
-20 62 -24 17 -4 62 -20 100 -34 39 -14 93 -34 120 -44 48 -18 367 -172 430
-209 160 -92 337 -202 366 -227 49 -42 79 -66 114 -93 65 -50 278 -266 267
-270 -29 -9 -44 -36 -39 -69 7 -43 -6 -42 -32 2 -31 53 -61 43 -61 -21 0 -45
-29 -24 -108 78 -49 64 -65 74 -86 53 -19 -19 -21 -19 -76 6 -31 14 -55 34
-73 62 -35 55 -85 107 -102 107 -8 0 -19 -9 -25 -20 -19 -36 31 -117 85 -134
31 -10 48 -42 95 -176 52 -148 99 -230 134 -230 37 0 47 37 25 94 -14 37 -15
53 -7 71 8 18 7 32 -2 55 -19 45 -1 59 39 30 35 -27 41 -38 52 -100 4 -25 13
-63 19 -85 6 -22 14 -53 17 -70 2 -16 8 -39 13 -50 5 -11 18 -50 30 -88 43
-134 116 -205 149 -143 17 30 1 107 -35 176 -13 25 -24 49 -24 53 0 5 -16 42
-35 83 -19 40 -35 80 -35 89 0 18 26 20 45 3 7 -7 59 -44 116 -83 158 -108
353 -289 415 -387 24 -38 54 -51 54 -24 0 8 -11 36 -24 63 -13 26 -45 92 -70
145 -26 54 -57 110 -70 125 -12 16 -25 35 -28 43 -14 38 -244 308 -353 413
-220 213 -386 353 -490 412 -27 16 -68 41 -90 56 -42 28 -78 49 -185 108 -59
33 -102 54 -305 152 -33 16 -109 46 -170 68 -60 22 -141 52 -180 66 -38 15
-95 34 -125 42 -51 14 -92 44 -102 75 -4 10 -8 11 -20 1 -12 -11 -19 -8 -39
13 -23 25 -23 26 -5 39 18 13 17 15 -10 40 -41 38 -175 98 -274 124 -82 22
-212 35 -237 24z m145 -51 c2 -7 -3 -12 -10 -12 -22 0 -68 -24 -68 -35 0 -5
30 -28 65 -50 43 -26 74 -54 89 -80 13 -22 52 -73 85 -112 34 -40 61 -80 61
-88 0 -20 58 -170 82 -213 10 -18 18 -37 18 -42 0 -12 34 -87 128 -280 118
-244 188 -428 170 -446 -4 -3 -21 -10 -40 -14 -18 -5 -44 -12 -57 -16 -18 -5
-23 -4 -19 7 2 7 21 18 41 22 61 15 45 36 -48 62 -44 13 -80 16 -139 12 -86
-6 -116 3 -116 32 0 36 -28 46 -117 43 -63 -2 -99 -9 -143 -27 -54 -23 -67
-24 -167 -19 -109 6 -188 -6 -268 -41 -116 -51 -148 -68 -212 -116 -40 -30
-102 -81 -138 -113 -36 -32 -68 -56 -72 -52 -13 12 141 157 227 214 141 93
347 172 451 172 27 0 61 -8 78 -17 26 -16 34 -16 63 -4 72 29 136 41 223 41
105 0 121 -7 117 -51 -4 -31 -3 -31 30 -25 82 17 100 17 160 2 82 -20 78 -21
78 17 0 38 -31 100 -71 142 -16 17 -29 38 -29 46 0 9 -13 35 -30 57 -16 23
-27 48 -24 56 3 8 -7 23 -26 36 -20 15 -29 28 -25 39 7 24 -32 101 -51 101
-12 0 -15 6 -11 21 3 12 -3 39 -13 60 -11 21 -17 44 -14 52 3 8 1 18 -5 22 -6
3 -11 19 -11 34 0 16 -6 34 -14 40 -8 6 -17 32 -21 58 -9 62 -38 105 -128 188
-117 108 -127 116 -148 110 -14 -5 -19 -1 -19 14 0 46 -58 12 -104 -60 -15
-24 -15 -31 -2 -70 14 -39 14 -45 -1 -61 -25 -28 -33 -21 -27 25 5 33 2 46
-11 57 -16 13 -19 13 -29 -4 -28 -48 -99 -125 -151 -166 -32 -25 -74 -59 -94
-75 -63 -53 -190 -145 -201 -145 -30 0 4 36 107 114 34 25 68 52 75 59 7 7 46
39 86 71 40 33 82 76 92 96 10 20 52 69 94 110 101 98 130 141 123 179 l-6 30
57 4 c71 4 75 3 80 -11z m123 -18 c30 -8 68 -21 84 -29 17 -7 38 -16 48 -19 9
-3 17 -10 17 -16 0 -15 -26 -12 -40 5 -7 8 -17 12 -22 9 -6 -4 -42 4 -82 16
-39 13 -77 24 -83 26 -20 5 -15 24 5 24 10 0 43 -7 73 -16z m217 -101 c6 -19
-25 -16 -32 3 -4 11 -1 14 11 12 9 -2 18 -9 21 -15z m-38 -88 c21 -63 125
-189 193 -233 109 -72 107 -70 107 -110 0 -20 6 -57 14 -82 18 -59 162 -295
238 -392 12 -15 18 -31 14 -35 -9 -9 -52 39 -97 107 -28 44 -37 55 -99 131
-17 20 -30 41 -30 46 0 6 -8 18 -19 27 -10 9 -24 38 -32 64 -7 26 -20 57 -30
70 -14 19 -16 28 -7 47 9 21 6 27 -27 57 -21 18 -47 39 -59 47 -79 54 -146
126 -175 187 -17 36 -31 74 -31 84 0 33 28 22 40 -15z m-420 7 c0 -13 -12 -22
-22 -16 -10 6 -1 24 13 24 5 0 9 -4 9 -8z m58 -34 c-3 -7 -13 -15 -24 -17 -16
-3 -17 -1 -5 13 16 19 34 21 29 4z m-318 -30 c0 -23 -51 -77 -145 -154 -146
-120 -193 -149 -296 -184 -103 -36 -248 -99 -319 -141 l-46 -26 -79 29 c-44
16 -86 32 -93 34 -30 9 0 21 35 14 20 -5 41 -7 45 -4 14 9 9 24 -8 24 -12 0
-15 6 -10 24 5 20 3 23 -14 19 -11 -3 -32 2 -46 12 -24 15 -27 15 -44 0 -11
-10 -26 -14 -38 -10 -11 3 -23 1 -27 -5 -5 -8 -12 -7 -24 4 -13 12 -24 13 -56
5 -22 -6 -52 -13 -68 -16 -35 -7 -122 6 -111 16 5 5 54 24 109 44 90 32 174
64 230 88 44 19 365 126 488 163 49 14 132 33 185 41 53 9 117 20 142 24 71
13 190 13 190 -1z m850 -94 c0 -8 -4 -12 -10 -9 -5 3 -10 10 -10 16 0 5 5 9
10 9 6 0 10 -7 10 -16z m-392 -19 c11 -11 -6 -15 -36 -9 -18 4 -32 11 -32 17
0 9 58 3 68 -8z m-268 -22 c-1 -14 -70 -86 -76 -80 -12 12 13 62 37 74 28 15
39 16 39 6z m274 -43 c14 -5 26 -15 26 -21 0 -7 -7 -8 -17 -4 -10 4 -30 10
-45 13 -16 2 -28 8 -28 13 0 12 32 11 64 -1z m-394 -165 c-17 -17 -32 -43 -32
-56 -2 -27 -26 -66 -75 -122 -18 -20 -33 -46 -33 -58 0 -11 -9 -33 -21 -47
-13 -18 -18 -34 -14 -50 4 -18 0 -32 -16 -48 -12 -13 -26 -24 -31 -24 -11 0
-10 26 1 48 5 9 16 42 25 72 20 70 164 315 205 348 14 11 16 10 19 -9 2 -13
-8 -33 -28 -54z m391 63 c42 -12 56 -42 17 -33 -13 3 -33 6 -45 8 -28 4 -37
12 -28 26 8 14 9 14 56 -1z m117 -7 c3 -8 -1 -12 -9 -9 -7 2 -15 10 -17 17 -3
8 1 12 9 9 7 -2 15 -10 17 -17z m-168 -101 c0 -5 -4 -10 -10 -10 -5 0 -10 5
-10 10 0 6 5 10 10 10 6 0 10 -4 10 -10z m-1627 -60 c159 -32 335 -79 365 -99
10 -6 5 -25 -26 -87 -51 -104 -89 -226 -108 -348 -8 -54 -17 -102 -20 -107 -2
-4 -16 -4 -29 1 -51 19 -235 -16 -343 -66 -29 -13 -55 -24 -58 -24 -5 0 -44
87 -44 100 0 13 74 -1 86 -16 6 -8 21 -14 33 -14 16 0 21 6 21 24 0 27 15 42
25 26 9 -15 25 -2 25 21 0 12 10 23 25 29 15 6 25 17 25 30 0 11 5 20 10 20 6
0 10 12 10 26 0 32 -24 27 -28 -6 -4 -25 -24 -50 -41 -50 -16 0 -14 12 17 71
41 81 43 84 53 68 6 -11 11 -11 20 -2 15 15 3 34 -16 26 -23 -8 -18 8 11 38
46 48 45 219 -1 219 -7 0 -23 14 -35 30 -12 17 -27 30 -34 30 -7 0 -24 18 -39
40 -14 22 -21 40 -16 40 6 0 56 -9 112 -20z m1805 -80 c4 -10 -6 -11 -44 -5
-60 9 -68 13 -54 30 8 10 19 10 52 0 23 -6 44 -18 46 -25z m10 -51 c41 -16 25
-31 -25 -23 -57 8 -86 21 -78 35 7 10 61 3 103 -12z m-2332 -80 c16 -53 16
-49 5 -49 -11 0 -50 82 -44 93 10 17 27 -1 39 -44z m1081 -74 c-9 -54 -56
-125 -106 -159 -48 -33 -147 -127 -169 -161 -11 -17 -12 -12 -7 36 11 101 32
161 67 192 29 26 39 28 79 24 62 -8 105 18 115 68 8 46 29 47 21 0z m83 24 c0
-6 -6 -23 -14 -37 -7 -15 -20 -40 -27 -55 -19 -41 -23 -16 -5 28 9 21 16 46
16 56 0 11 7 19 15 19 8 0 15 -5 15 -11z m-1235 -57 c-8 -8 -25 17 -25 38 0 9
6 6 16 -8 9 -13 13 -26 9 -30z m145 -12 c0 -5 -4 -10 -9 -10 -6 0 -13 5 -16
10 -3 6 1 10 9 10 9 0 16 -4 16 -10z m1490 -39 c0 -17 -62 -103 -99 -137 -47
-43 -67 -27 -25 18 17 18 46 54 64 81 30 43 60 61 60 38z m-1460 -43 c1 -13 7
-34 15 -48 8 -14 15 -36 15 -50 0 -14 7 -36 14 -50 31 -54 56 -113 56 -132 0
-10 17 -36 38 -57 32 -33 52 -68 68 -121 3 -8 -8 -31 -25 -50 -24 -29 -32 -33
-43 -22 -11 11 -9 17 10 32 27 22 29 50 3 50 -23 0 -53 53 -44 76 3 9 -3 27
-14 42 -35 48 -93 158 -93 177 0 10 -8 27 -17 37 -13 14 -14 21 -5 30 20 20
14 38 -12 38 -38 0 -42 20 -10 46 36 29 44 30 44 2z m2939 -19 c21 -60 12
-139 -15 -139 -12 0 -13 10 -8 49 6 46 4 50 -21 67 -31 20 -51 13 -75 -29 -31
-54 29 -215 130 -352 62 -84 73 -103 65 -115 -6 -9 46 -153 75 -205 15 -29 25
-58 49 -151 13 -51 14 -91 2 -99 -5 -3 -12 -18 -16 -35 -3 -16 -20 -46 -36
-66 -16 -20 -29 -42 -29 -49 0 -7 -34 -80 -75 -161 -64 -129 -97 -191 -153
-291 -14 -26 -42 -21 -42 8 0 10 16 39 35 65 19 25 51 77 71 116 19 39 46 90
59 113 14 22 32 61 41 85 17 47 26 158 14 175 -25 35 -43 311 -22 338 21 26
-7 127 -65 232 -9 17 -31 60 -49 96 -18 36 -41 72 -49 79 -32 26 -54 87 -57
154 -3 62 -1 66 31 100 31 32 46 38 113 44 10 1 20 -10 27 -29z m-1943 -60
c24 -48 25 -58 19 -133 -7 -76 -17 -106 -36 -106 -4 0 -9 15 -11 33 l-4 32
-11 -26 c-7 -15 -26 -43 -44 -64 -18 -20 -44 -54 -58 -75 -14 -22 -61 -77
-103 -123 -63 -68 -78 -90 -78 -116 0 -27 3 -31 28 -31 16 0 37 -9 47 -20 20
-22 45 -117 45 -172 0 -20 5 -48 11 -62 10 -20 8 -33 -10 -70 -25 -55 -26 -72
-4 -122 10 -22 18 -68 20 -104 5 -145 9 -164 70 -286 31 -62 47 -110 52 -152
13 -106 48 -113 43 -9 -3 59 -2 61 15 44 12 -12 20 -41 25 -95 10 -118 9 -222
-2 -222 -17 0 -30 48 -30 111 0 45 -3 59 -14 59 -9 0 -16 -12 -18 -27 -2 -16
-7 -28 -13 -27 -5 0 -42 65 -82 144 -87 172 -133 245 -174 269 -39 24 -117
116 -125 146 -4 17 15 67 70 180 42 85 76 167 76 181 0 30 -25 88 -45 104 -11
9 -40 -3 -128 -49 -90 -48 -117 -58 -125 -48 -6 7 -30 53 -52 102 -136 292
-131 279 -105 333 15 29 14 34 -5 72 -11 22 -18 45 -15 50 3 5 52 24 108 42
84 26 119 32 197 32 84 1 99 -2 124 -22 31 -24 56 -16 56 17 0 29 67 124 114
164 54 45 67 47 60 8 -7 -31 13 -53 27 -30 14 23 34 -7 30 -46 -2 -26 1 -35
12 -35 18 0 27 21 27 65 0 27 -5 35 -30 45 -25 10 -29 17 -24 34 6 19 32 56
40 56 2 0 15 -23 30 -51z m-1407 -38 c12 -16 42 -39 66 -52 38 -20 44 -28 56
-76 13 -56 41 -85 62 -64 18 18 50 -7 43 -33 -12 -49 42 -74 141 -67 12 1 26
-6 31 -15 9 -15 13 -16 26 -5 9 7 16 19 16 26 0 17 -67 188 -101 257 -13 25
-11 38 5 38 8 0 17 -15 20 -35 4 -19 27 -79 51 -135 25 -55 45 -109 45 -120 0
-10 5 -22 10 -25 6 -4 7 -13 1 -24 -6 -10 -7 -27 -4 -39 8 -31 -15 -28 -27 3
-5 14 -17 25 -28 25 -29 0 -99 -55 -118 -92 -9 -18 -25 -40 -37 -49 -17 -14
-19 -21 -10 -45 6 -16 12 -46 12 -67 0 -20 5 -46 11 -56 49 -93 -108 44 -183
159 -103 156 -157 359 -131 489 8 38 15 39 43 2z m556 -61 c3 -5 1 -10 -4 -10
-6 0 -11 5 -11 10 0 6 2 10 4 10 3 0 8 -4 11 -10z m-375 -86 c0 -8 -4 -12 -10
-9 -5 3 -10 13 -10 21 0 8 5 12 10 9 6 -3 10 -13 10 -21z m2892 -36 c8 -7 19
-20 24 -29 5 -9 33 -43 62 -74 29 -32 68 -82 85 -112 80 -137 85 -149 80 -171
-3 -12 0 -29 7 -36 8 -11 8 -20 1 -35 -6 -11 -11 -32 -11 -46 0 -23 -53 -115
-66 -115 -2 0 -1 24 2 53 7 58 -9 216 -25 244 -6 10 -24 49 -42 86 -37 79
-126 175 -188 203 -41 18 -47 25 -34 37 11 12 88 8 105 -5z m-272 -13 c23 -8
53 -15 66 -15 13 0 46 -10 72 -21 26 -12 61 -28 79 -35 36 -16 103 -89 103
-113 0 -8 11 -31 25 -51 23 -33 26 -51 34 -178 5 -83 5 -156 0 -177 -5 -19
-13 -50 -18 -69 -12 -49 -47 -102 -87 -132 -40 -31 -43 -55 -9 -82 45 -36 28
-57 -43 -53 -25 1 -54 8 -65 16 -15 10 -25 11 -40 4 -13 -8 -22 -8 -30 0 -16
16 -27 14 -27 -5 0 -9 9 -18 20 -21 46 -12 -3 -48 -54 -39 -46 8 -100 -38
-102 -88 -1 -44 -18 -66 -36 -48 -23 23 -12 78 22 111 18 17 37 31 41 31 5 0
9 9 9 21 0 33 -51 22 -70 -16 -8 -16 -25 -46 -38 -66 -37 -61 -21 -125 29
-112 17 5 20 2 17 -13 -3 -20 -58 -34 -58 -15 0 6 -13 11 -29 11 -33 0 -44 11
-45 48 -2 44 -25 37 -38 -12 -15 -57 -28 -59 -28 -6 0 53 -16 51 -40 -5 -11
-25 -24 -45 -30 -45 -7 0 -19 18 -28 41 -13 33 -19 39 -37 35 -17 -4 -23 1
-31 27 -7 25 -14 32 -34 32 -29 0 -41 -33 -16 -47 22 -12 21 -48 -2 -48 -10 0
-27 18 -42 45 -26 48 -83 95 -116 95 -22 1 -78 47 -87 73 -8 21 -27 22 -53 2
-10 -8 -39 -15 -64 -15 -59 0 -120 49 -120 97 0 40 -26 52 -33 15 -6 -31 5
-56 42 -95 31 -34 72 -57 101 -57 11 0 20 -4 20 -10 0 -5 -18 -10 -40 -10 -30
0 -48 8 -76 32 -41 37 -114 131 -114 149 0 6 -8 33 -17 59 -14 40 -15 51 -4
64 21 25 41 20 41 -10 0 -33 39 -89 52 -76 10 10 9 12 -25 77 -13 26 -15 67
-14 252 l3 221 28 41 c61 87 139 131 261 148 22 3 50 12 62 20 27 18 34 7 30
-42 -2 -29 -1 -30 43 -28 25 1 48 2 52 2 3 1 15 17 27 36 23 39 38 44 56 18
11 -15 16 -16 38 -4 36 19 79 3 89 -35 5 -16 6 -59 2 -96 -4 -47 -3 -68 5 -68
6 0 11 -11 11 -24 0 -13 9 -30 20 -37 23 -16 44 -108 34 -152 -5 -26 -5 -28
14 -16 12 7 23 21 25 31 7 25 24 23 32 -3 12 -36 58 -97 83 -108 13 -6 36 -11
52 -11 22 0 35 -9 57 -42 66 -97 142 -126 238 -91 45 17 52 24 82 83 44 88 52
179 25 276 -23 84 -51 141 -84 171 -33 31 -114 65 -151 63 -52 -3 -91 0 -104
8 -14 9 -29 102 -15 102 5 0 29 -7 52 -15z m-185 -55 c7 -23 15 -24 50 -8 20
9 31 8 50 -2 31 -17 32 -36 1 -52 -26 -14 -96 -94 -96 -109 0 -14 -64 -39
-100 -39 -40 0 -74 33 -64 63 4 12 6 39 5 59 -1 20 4 42 11 48 72 61 131 78
143 40z m-1305 -68 c0 -9 -17 -33 -87 -117 -57 -69 -64 -90 -33 -100 30 -9 47
-42 61 -113 9 -47 9 -66 1 -74 -17 -17 -21 -8 -32 57 -11 69 -29 98 -70 116
-16 8 -30 19 -30 26 0 10 36 53 124 148 10 11 25 30 33 43 15 22 33 30 33 14z
m124 -189 c-42 -65 -88 -142 -101 -170 -14 -30 -31 -53 -39 -53 -25 0 -7 43
77 180 63 102 131 188 137 171 2 -5 -31 -63 -74 -128z m-949 57 c-3 -5 -10
-10 -16 -10 -5 0 -9 5 -9 10 0 6 7 10 16 10 8 0 12 -4 9 -10z m135 -30 c0 -5
-4 -10 -10 -10 -5 0 -10 5 -10 10 0 6 5 10 10 10 6 0 10 -4 10 -10z m44 -112
c9 -17 16 -35 16 -40 0 -4 11 -26 25 -48 14 -22 25 -44 25 -50 0 -6 14 -39 31
-73 51 -102 119 -279 119 -309 0 -10 5 -18 10 -18 14 0 32 -50 25 -69 -9 -22
-18 -5 -71 142 -55 151 -42 121 -147 347 -45 98 -67 149 -67 155 0 14 20 -7
34 -37z m398 -193 c8 -18 8 -32 -2 -55 -17 -40 -30 -38 -23 4 3 19 1 36 -6 40
-16 10 -13 36 4 36 9 0 20 -11 27 -25z m2288 9 c0 -13 -53 -111 -77 -142 -14
-18 -35 -38 -48 -44 -18 -8 -23 -18 -22 -47 0 -20 4 -41 9 -47 5 -7 3 -14 -7
-18 -11 -4 -14 -13 -10 -26 5 -15 -3 -34 -27 -65 -18 -24 -35 -45 -38 -45 -3
0 -11 9 -18 21 -12 18 -11 24 7 43 12 12 21 30 21 40 0 26 -19 56 -35 56 -8 0
-15 2 -15 5 0 12 98 103 117 109 17 6 73 75 73 90 0 16 44 76 56 76 8 0 14 -3
14 -6z m-10 -136 c-1 -20 -56 -82 -63 -71 -3 5 5 26 19 46 25 37 44 48 44 25z
m-2096 -63 c4 -22 14 -60 22 -84 7 -24 11 -47 9 -52 -9 -13 25 -160 47 -204
11 -22 38 -66 59 -97 22 -32 39 -59 39 -61 0 -2 -13 -4 -30 -4 -27 0 -33 7
-79 101 -47 95 -51 108 -61 217 -10 111 -23 173 -41 194 -15 16 -10 37 9 33
11 -2 20 -18 26 -43z m2103 -57 c-46 -66 -111 -138 -126 -138 -17 0 -14 7 39
78 101 133 102 134 113 123 7 -7 0 -26 -26 -63z m-1867 -72 c0 -8 -4 -17 -9
-20 -10 -7 -23 19 -14 28 11 11 23 6 23 -8z m528 -38 c-6 -18 -28 -21 -28 -4
0 9 7 16 16 16 9 0 14 -5 12 -12z m952 -9 c0 -5 -4 -9 -10 -9 -5 0 -10 7 -10
16 0 8 5 12 10 9 6 -3 10 -10 10 -16z m80 -30 c0 -5 -4 -9 -10 -9 -5 0 -10 7
-10 16 0 8 5 12 10 9 6 -3 10 -10 10 -16z m-2250 -17 c0 -13 -12 -22 -22 -16
-10 6 -1 24 13 24 5 0 9 -4 9 -8z m1304 -38 c4 -10 -1 -37 -10 -61 -14 -37
-15 -52 -6 -96 6 -29 14 -72 17 -97 10 -79 30 -154 45 -175 30 -40 113 -105
134 -105 12 0 27 -5 32 -10 6 -6 39 -11 75 -12 35 -1 72 -6 82 -12 23 -14 22
-49 -3 -71 -27 -25 -25 -37 5 -29 23 6 25 3 25 -25 0 -34 -19 -41 -40 -16 -18
21 -30 19 -30 -6 0 -20 -5 -21 -82 -18 -135 4 -196 37 -255 137 -22 37 -24 47
-14 69 11 24 2 76 -20 108 -4 6 -10 37 -14 70 -8 66 -26 108 -91 206 -24 37
-44 77 -44 89 0 29 18 60 35 60 17 0 45 -50 45 -80 0 -11 4 -28 9 -38 5 -9 13
-30 17 -46 5 -16 15 -31 22 -34 16 -5 16 41 0 85 -10 29 -10 38 5 61 10 15 21
35 24 45 7 22 29 22 37 1z m869 -16 c19 -26 19 -28 3 -62 -18 -38 -52 -52 -41
-16 3 11 -1 35 -10 54 -28 59 8 77 48 24z m84 2 c-14 -23 -37 -26 -37 -5 0 15
30 36 42 29 4 -3 2 -14 -5 -24z m-215 -10 c0 -11 1 -24 2 -30 1 -5 -2 -9 -6
-7 -3 1 -18 -9 -31 -22 -26 -24 -47 -22 -47 6 0 8 9 17 21 20 11 3 25 16 30
29 10 29 28 31 31 4z m-1298 1 c3 -4 3 -11 0 -14 -8 -8 -34 3 -34 14 0 11 27
12 34 0z m-534 -41 c0 -5 -2 -10 -4 -10 -3 0 -8 5 -11 10 -3 6 -1 10 4 10 6 0
11 -4 11 -10z m-41 -9 c16 -10 6 -31 -15 -31 -8 0 -14 9 -14 20 0 22 7 25 29
11z m1261 -17 c0 -9 -5 -14 -12 -12 -18 6 -21 28 -4 28 9 0 16 -7 16 -16z
m-1141 -24 c19 -9 101 -140 101 -159 0 -6 5 -11 10 -11 6 0 10 -4 10 -10 0
-24 -18 -5 -64 65 -27 42 -62 87 -78 100 -21 18 -25 25 -13 25 9 0 24 -4 34
-10z m1256 -85 c0 -58 -16 -88 -37 -67 -17 17 -16 105 1 126 22 26 36 3 36
-59z m-1306 17 c24 -22 41 -46 41 -59 0 -12 5 -25 10 -28 6 -3 10 -15 10 -26
0 -11 7 -22 15 -25 15 -6 55 -81 55 -102 0 -6 6 -12 14 -15 8 -3 18 -27 22
-54 3 -26 15 -56 25 -66 10 -10 22 -30 25 -45 4 -15 20 -50 36 -78 15 -28 28
-56 28 -63 0 -13 71 -186 97 -233 8 -16 11 -28 8 -28 -17 0 -64 33 -96 67 -33
34 -99 145 -99 167 0 4 -13 36 -29 70 -16 33 -47 100 -69 147 -22 48 -45 90
-51 94 -6 3 -11 19 -11 34 0 15 -16 58 -35 95 -19 38 -32 72 -29 77 3 5 -8 27
-25 48 -23 29 -27 41 -19 49 19 19 33 14 77 -26z m1375 14 c3 -14 3 -31 0 -39
-3 -8 -1 -18 5 -22 18 -10 13 -25 -8 -25 -26 0 -32 11 -35 65 -2 37 1 45 15
45 9 0 19 -10 23 -24z m171 -17 c6 -34 4 -45 -13 -61 -11 -11 -25 -17 -31 -14
-15 10 -14 72 1 96 20 31 36 24 43 -21z m163 -11 c-3 -46 -6 -53 -26 -56 -32
-5 -37 20 -12 67 28 56 42 52 38 -11z m-1138 21 c0 -18 -2 -19 -15 -9 -8 7
-15 16 -15 21 0 5 7 9 15 9 9 0 15 -9 15 -21z m880 0 c0 -11 4 -28 10 -38 6
-13 5 -24 -6 -39 -31 -45 -61 -17 -42 40 6 18 12 39 14 46 5 20 24 14 24 -9z
m174 -16 c7 -25 5 -38 -8 -58 -21 -31 -33 -25 -42 19 -13 72 30 106 50 39z
m306 32 c0 -3 -5 -14 -12 -25 -16 -25 -5 -35 21 -19 32 21 38 1 8 -29 -22 -21
-31 -25 -45 -16 -24 15 -27 52 -6 75 16 18 34 25 34 14z m-701 -19 c9 -11 8
-21 -7 -45 -22 -37 -32 -31 -32 21 0 40 17 51 39 24z m551 0 c0 -16 -24 -39
-32 -30 -3 3 -4 14 -1 25 6 22 33 26 33 5z m-1963 -121 c6 -11 30 -74 53 -140
37 -108 101 -268 151 -382 22 -50 24 -66 7 -61 -11 4 -125 272 -198 466 -35
91 -54 177 -45 198 7 15 10 11 15 -21 3 -22 11 -49 17 -60z m2593 37 l23 -18
-27 -27 c-47 -47 -71 -27 -46 37 11 31 20 32 50 8z m-1280 -53 c0 -5 -4 -9
-10 -9 -5 0 -10 7 -10 16 0 8 5 12 10 9 6 -3 10 -10 10 -16z m1050 5 c0 -3
-20 -38 -44 -77 -23 -40 -51 -87 -60 -104 -22 -43 -41 -43 -32 -1 3 18 10 34
14 38 7 5 13 14 62 98 17 28 38 52 46 52 8 0 14 -3 14 -6z m-355 -14 c8 -13
-13 -80 -25 -80 -13 0 -22 39 -16 66 6 24 30 32 41 14z m125 -19 c0 -12 -28
-22 -34 -12 -3 5 -3 11 1 15 9 9 33 7 33 -3z m-721 -37 c13 15 15 15 27 -1 11
-15 16 -16 32 -6 17 10 22 9 35 -10 12 -18 18 -20 28 -9 18 17 39 15 55 -5 13
-17 15 -17 25 0 14 23 39 22 39 -3 0 -13 7 -20 20 -20 13 0 20 7 20 18 0 19
18 42 33 42 5 0 7 -13 4 -28 -3 -15 -2 -34 3 -41 6 -10 12 -6 24 18 18 34 33
40 43 15 4 -11 13 -13 35 -9 29 7 29 7 22 -32 -8 -47 -12 -53 -30 -53 -8 0
-14 10 -14 25 0 14 -4 25 -10 25 -5 0 -10 -6 -10 -13 0 -7 -5 -18 -12 -25 -9
-9 -17 -7 -35 10 -22 21 -24 21 -37 3 -9 -12 -15 -14 -20 -7 -12 20 -34 13
-38 -10 -4 -31 -26 -34 -34 -4 -8 33 -32 33 -44 1 -12 -32 -28 -32 -40 0 -9
22 -13 24 -31 15 -24 -14 -31 -9 -33 22 -1 30 -32 36 -41 8 -5 -17 -10 -19
-21 -9 -8 6 -14 18 -14 26 0 11 -7 13 -30 8 -23 -5 -30 -3 -30 8 0 9 -3 22 -6
30 -3 8 3 22 12 31 16 17 18 16 38 -9 20 -25 23 -26 35 -11z m1103 21 c0 -5
-5 -11 -11 -13 -6 -2 -11 4 -11 13 0 9 5 15 11 13 6 -2 11 -8 11 -13z m-1704
-144 c159 -150 328 -290 425 -352 34 -21 67 -42 72 -46 6 -5 48 -26 95 -48 47
-22 89 -43 95 -48 18 -15 -18 -26 -63 -20 -34 5 -55 16 -92 52 -31 29 -75 57
-120 76 -39 16 -78 37 -87 47 -9 10 -36 27 -60 38 -24 10 -43 25 -43 33 0 8
-24 30 -52 48 -78 49 -148 113 -194 177 -29 41 -48 58 -67 60 -20 3 -29 12
-38 40 -6 20 -15 41 -20 47 -10 10 -12 35 -3 35 3 0 72 -62 152 -139z m1777
119 c0 -8 -8 -16 -17 -18 -13 -2 -18 3 -18 18 0 15 5 20 18 18 9 -2 17 -10 17
-18z m-649 -37 c-2 -31 -6 -39 -24 -41 -18 -3 -22 1 -22 27 0 29 25 65 39 56
4 -2 7 -21 7 -42z m1418 -1 c37 -10 41 -21 16 -52 -19 -23 -21 -24 -33 -8 -9
11 -21 15 -36 11 -12 -3 -33 0 -47 7 -19 10 -27 11 -36 2 -9 -9 -16 -8 -30 5
-16 14 -24 15 -52 5 -18 -7 -43 -12 -57 -12 -29 0 -39 -7 -62 -42 -10 -16 -23
-28 -29 -28 -6 0 -19 -7 -29 -16 -17 -15 -21 -15 -50 11 -23 18 -39 25 -53 20
-12 -4 -29 -8 -39 -9 -10 -1 -22 -8 -27 -15 -5 -8 -16 -11 -29 -6 -16 5 -26 1
-36 -11 -12 -17 -15 -18 -32 -2 -27 24 -76 12 -127 -33 -24 -22 -49 -39 -56
-39 -6 0 -26 -15 -44 -32 -18 -18 -39 -38 -47 -44 -30 -23 -88 -97 -83 -105
10 -16 26 -10 65 26 22 19 48 35 58 35 11 0 23 5 27 11 4 7 21 9 40 6 21 -4
45 0 62 9 15 8 49 14 80 12 29 -1 58 4 64 10 7 7 24 12 39 12 15 0 31 5 35 11
3 6 17 9 31 6 16 -3 27 1 33 13 10 18 53 17 77 -2 18 -14 9 -24 -27 -31 -16
-4 -40 -18 -52 -32 -17 -20 -31 -25 -70 -25 -41 0 -48 -3 -48 -20 0 -24 -3
-24 -42 -4 -29 15 -32 15 -57 -4 -31 -23 -89 -33 -114 -20 -22 11 -67 -2 -162
-47 -79 -38 -125 -52 -125 -37 0 28 38 93 97 166 74 91 103 119 151 142 18 8
37 27 43 41 6 17 14 23 26 19 9 -4 24 1 34 10 12 11 23 13 33 7 26 -14 238 23
291 50 11 6 58 19 105 29 88 18 261 18 324 0z m-1314 -1 c0 -16 -100 -140
-132 -164 -41 -31 -141 -74 -190 -82 -36 -6 -38 -4 -53 31 -23 56 -20 75 13
72 15 -1 33 1 40 6 6 4 36 7 64 7 29 0 68 5 87 11 46 14 124 75 134 104 8 22
37 34 37 15z m64 -60 c7 -10 -22 -37 -30 -28 -9 8 3 37 15 37 5 0 12 -4 15 -9z
m-1364 -56 c7 -9 10 -18 7 -22 -8 -7 -37 15 -37 28 0 14 16 11 30 -6z m1444
-111 c-83 -139 -134 -201 -134 -163 0 6 32 58 70 115 39 58 70 113 70 123 0
26 12 33 28 18 12 -12 7 -26 -34 -93z m-1679 46 c14 -27 22 -50 19 -50 -16 0
-54 53 -54 76 0 35 7 30 35 -26z m277 3 c22 -19 24 -43 3 -43 -14 0 -35 29
-35 49 0 16 11 14 32 -6z m1187 -64 c-19 -16 -49 -36 -66 -44 -37 -18 -41 -30
-16 -57 16 -18 15 -20 -13 -47 -43 -40 -64 -69 -64 -86 0 -25 -73 -90 -123
-109 -26 -10 -50 -23 -54 -31 -11 -17 -80 -51 -122 -59 -48 -9 -178 -73 -224
-110 -22 -17 -55 -36 -75 -41 -22 -6 -41 -20 -48 -34 -29 -58 -134 -139 -134
-103 0 14 105 133 148 167 23 18 104 63 179 100 76 37 188 92 249 122 61 30
128 68 148 85 69 56 96 147 56 183 -27 24 -25 32 12 51 25 13 36 14 51 5 16
-10 26 -7 65 18 56 36 77 29 31 -10z m1106 12 c0 -8 -7 -17 -15 -21 -8 -4 -25
-12 -36 -18 -25 -12 -34 -7 -34 20 0 20 15 24 26 6 5 -7 10 -4 16 11 9 24 43
26 43 2z m-2217 -60 c33 -28 41 -66 15 -66 -12 0 -73 72 -73 86 0 17 25 8 58
-20z m-1038 14 c0 -2 -6 -24 -14 -47 -7 -24 -19 -62 -26 -84 -14 -47 -53 -94
-76 -94 -9 0 -14 3 -12 8 52 113 109 222 117 222 6 0 11 -2 11 -5z m766 -75
c10 -24 42 -92 71 -149 28 -58 50 -107 48 -109 -7 -8 -46 24 -51 43 -6 18 -35
86 -69 160 -7 17 -16 40 -20 53 -3 12 -11 22 -16 22 -5 0 -9 15 -9 32 0 30 1
31 13 13 8 -11 22 -40 33 -65z m179 -2 c4 -11 12 -55 42 -225 7 -39 -13 -45
-42 -13 -14 16 -16 25 -8 43 7 15 7 29 1 40 -14 25 -21 167 -8 167 6 0 13 -6
15 -12z m685 -7 c0 -11 -5 -23 -11 -27 -15 -9 -33 12 -26 30 9 23 37 20 37 -3z
m160 0 c0 -5 -6 -14 -14 -20 -16 -13 -32 2 -21 19 8 12 35 13 35 1z m-675 -52
c4 -11 21 -29 38 -39 30 -18 97 -95 97 -110 0 -5 13 -12 28 -18 20 -7 31 -20
38 -43 7 -25 16 -35 34 -37 46 -6 69 -65 30 -75 -27 -7 -58 20 -123 106 -30
39 -85 106 -121 147 -36 41 -66 78 -66 83 0 17 39 5 45 -14z m648 -35 c29 -5
57 -37 57 -66 0 -14 -37 -9 -87 13 -26 11 -59 25 -72 30 -20 8 -21 12 -10 25
9 11 23 14 46 10 18 -3 48 -9 66 -12z m617 -11 c0 -18 -28 -53 -43 -53 -5 0
-36 -16 -69 -36 -32 -20 -62 -34 -65 -31 -12 12 7 37 39 50 18 8 51 31 72 51
43 39 66 46 66 19z m553 -64 c43 -11 100 -29 128 -39 27 -11 58 -20 69 -20 22
0 118 -74 172 -134 81 -88 214 -315 203 -344 -4 -11 -15 -13 -46 -8 -58 9 -76
21 -98 64 -27 51 -164 189 -226 227 -16 10 -39 26 -50 35 -27 22 -104 50 -138
50 -20 0 -30 7 -37 25 -12 30 -19 31 -72 4 -23 -12 -56 -24 -72 -26 -42 -7
-74 -25 -120 -67 -25 -23 -48 -36 -66 -36 -16 0 -30 -5 -32 -12 -3 -7 -22 -11
-47 -10 -25 1 -55 -5 -71 -15 -41 -24 -93 -99 -119 -170 -19 -55 -20 -65 -8
-85 8 -13 15 -50 16 -84 1 -33 6 -76 11 -95 6 -18 10 -39 10 -46 0 -19 -122
-105 -142 -100 -36 10 -70 -68 -62 -143 11 -109 14 -242 5 -258 -8 -13 -3 -24
21 -49 32 -33 33 -58 3 -70 -34 -12 -145 133 -205 269 -50 115 -87 388 -62
470 5 18 16 60 23 93 7 33 23 83 36 112 13 28 23 56 23 61 0 15 95 143 147
198 103 109 274 192 463 223 77 13 251 3 343 -20z m-2303 -34 c54 -53 219
-114 310 -115 60 0 70 -8 106 -78 10 -20 -1 -25 -62 -26 -48 0 -59 3 -72 22
-8 12 -21 22 -29 22 -7 0 -36 11 -63 25 -52 26 -86 32 -92 15 -2 -6 -29 2 -64
19 -38 18 -70 27 -86 24 -22 -4 -26 -1 -31 32 -7 40 14 95 35 95 7 0 28 -16
48 -35z m-133 -78 c18 -44 11 -76 -12 -57 -8 7 -15 20 -15 29 0 9 -5 22 -11
28 -14 14 -4 46 12 41 6 -2 18 -21 26 -41z m133 -62 c16 -14 90 -44 215 -87
33 -12 94 -24 135 -27 l75 -6 -3 -37 c-4 -40 10 -50 26 -21 11 19 42 11 42
-10 0 -23 -21 -34 -76 -40 -42 -5 -57 -2 -90 18 -21 13 -50 29 -64 35 -14 6
-32 18 -41 26 -9 8 -40 19 -70 24 -47 9 -60 8 -94 -10 -71 -36 -107 -23 -85
31 12 28 11 32 -19 63 -24 25 -28 35 -19 44 16 16 48 15 68 -3z m1450 6 c0
-12 -99 -101 -112 -101 -6 0 -35 -22 -65 -50 -30 -27 -58 -50 -63 -50 -5 0
-11 -8 -14 -17 -3 -10 -20 -26 -36 -35 -17 -10 -33 -25 -37 -35 -3 -10 -21
-34 -38 -54 -18 -20 -34 -41 -36 -46 -6 -15 -156 -123 -171 -123 -17 0 -38 20
-38 36 0 6 16 15 36 19 64 12 101 35 110 69 13 56 15 54 -39 41 -55 -14 -26
16 47 49 58 27 75 39 78 58 2 17 20 32 68 58 102 54 112 63 104 94 -7 29 12
35 46 14 16 -10 23 -9 43 10 13 12 27 22 33 22 5 1 23 12 39 25 32 26 45 31
45 16z m-1532 -93 c-4 -29 -38 -38 -38 -10 0 22 8 32 27 32 9 0 13 -8 11 -22z
m1292 0 c0 -7 -17 -22 -38 -34 -105 -59 -231 -124 -241 -124 -24 0 -9 17 32
38 23 12 85 46 137 76 103 59 110 62 110 44z m906 -55 c-3 -16 -15 -82 -27
-147 -11 -66 -25 -130 -30 -142 -11 -30 -186 -121 -202 -105 -17 17 8 146 42
215 35 69 97 142 155 180 52 35 70 34 62 -1z m281 -12 c52 -19 113 -56 113
-69 0 -4 19 -26 42 -50 23 -25 37 -46 32 -51 -5 -5 -37 -12 -71 -15 -61 -7
-62 -7 -87 27 -14 19 -26 37 -26 42 0 4 -16 32 -36 62 -19 29 -32 58 -29 63 8
12 1 13 62 -9z m-2787 -9 c0 -9 -40 -35 -46 -29 -3 2 -2 12 2 21 6 16 44 23
44 8z m581 -66 c105 -42 158 -51 206 -35 34 11 38 10 55 -11 10 -13 16 -30 14
-37 -3 -8 3 -33 14 -56 12 -23 16 -45 11 -50 -7 -7 -56 14 -135 60 -12 7 -32
13 -44 13 -13 0 -36 6 -50 14 -15 7 -45 19 -66 26 -35 11 -41 11 -52 -5 -7
-10 -15 -21 -16 -26 -2 -4 -16 -9 -33 -11 l-30 -3 0 72 c0 71 1 75 36 82 3 0
43 -14 90 -33z m349 -6 c0 -43 -21 -63 -43 -41 -9 9 -7 20 7 46 25 46 36 44
36 -5z m-515 -21 c11 -16 -4 -59 -19 -59 -22 0 -49 60 -35 76 12 14 41 5 54
-17z m2236 -55 c23 -39 23 -61 -1 -74 -30 -16 -36 -7 -38 55 -2 63 10 69 39
19z m-2846 -63 c13 -27 29 -52 35 -56 5 -3 10 -16 10 -29 0 -12 5 -27 12 -34
8 -8 8 -15 -2 -26 -7 -9 -10 -22 -7 -30 3 -8 -7 -49 -22 -92 -23 -67 -31 -80
-59 -91 -27 -11 -32 -11 -32 1 0 8 5 18 11 22 26 16 59 110 59 167 0 71 -21
119 -67 155 -39 32 -41 40 -10 52 38 15 46 11 72 -39z m1120 29 c0 -22 -29
-18 -33 3 -3 14 1 18 15 15 10 -2 18 -10 18 -18z m-358 -55 c21 -8 59 -16 85
-18 52 -3 78 -20 78 -49 0 -28 -22 -31 -90 -14 -89 23 -104 22 -96 -9 9 -36
-18 -44 -49 -15 -19 18 -22 29 -18 59 9 69 19 74 90 46z m-125 -40 c0 -5 -5
-11 -11 -13 -6 -2 -11 4 -11 13 0 9 5 15 11 13 6 -2 11 -8 11 -13z m398 -5
c22 -11 57 -24 77 -28 25 -5 39 -14 41 -26 3 -16 0 -18 -25 -11 -15 4 -54 9
-85 12 -65 5 -85 21 -68 52 13 26 12 26 60 1z m2463 -28 c22 -47 27 -181 9
-275 -15 -82 -73 -229 -127 -323 -22 -38 -68 -97 -102 -131 -35 -35 -63 -66
-63 -69 0 -4 11 -3 24 0 24 6 51 -14 44 -33 -5 -15 -141 -80 -152 -74 -5 4 0
13 10 22 11 9 28 30 39 48 15 25 16 35 7 46 -16 19 -1 59 33 89 28 24 31 39
13 67 -9 15 -9 23 1 35 15 18 51 22 51 6 0 -5 5 -10 11 -10 6 0 8 7 5 17 -4
10 2 24 14 36 13 12 19 25 15 36 -4 9 -18 46 -32 83 l-25 67 31 64 c42 87 62
158 70 247 l6 75 37 0 c20 0 40 3 44 8 13 12 18 8 37 -31z m-286 12 c9 -25
-11 -157 -25 -162 -7 -2 -19 12 -28 34 -9 21 -27 54 -40 73 -31 46 -30 59 4
64 60 9 83 7 89 -9z m-1809 -76 c23 -14 72 -85 72 -103 0 -25 -24 -17 -66 23
-22 20 -58 43 -80 51 -53 19 -69 32 -52 43 16 11 103 1 126 -14z m1562 -64
c22 -48 40 -91 40 -96 0 -5 9 -28 20 -50 11 -23 20 -47 20 -53 0 -31 -142 -98
-198 -93 l-36 3 -13 80 c-13 77 -15 236 -3 254 8 14 73 39 103 40 25 1 31 -7
67 -85z m-1986 67 c17 -7 16 -9 -14 -19 -35 -13 -58 -4 -46 17 8 12 32 13 60
2z m2805 -28 c-13 -15 -26 -30 -29 -33 -3 -3 -19 -27 -35 -55 -16 -27 -43 -70
-61 -95 -40 -57 -57 -109 -49 -152 5 -29 3 -35 -22 -45 -15 -7 -44 -13 -65
-13 -61 0 -54 29 47 185 28 44 65 95 81 113 68 77 120 122 138 122 18 0 18 -2
-5 -27z m-2641 -17 c33 7 46 -9 17 -20 -8 -3 -15 -13 -15 -22 0 -18 116 -243
260 -504 26 -47 72 -137 103 -200 83 -171 92 -177 149 -111 30 36 35 38 53 25
18 -14 18 -14 -2 -14 -14 0 -25 -10 -33 -31 -9 -21 -22 -32 -42 -36 -16 -3
-35 -14 -42 -25 -12 -16 -14 -17 -19 -3 -9 21 -34 19 -42 -4 -3 -11 -12 -22
-20 -24 -10 -5 -12 2 -8 26 2 18 -3 52 -12 77 -9 25 -20 64 -24 87 -4 23 -12
48 -18 55 -5 7 -16 29 -23 48 -8 19 -27 56 -42 81 -16 26 -33 62 -40 80 -6 19
-25 56 -41 84 -16 27 -52 94 -80 150 -51 101 -96 172 -131 208 -17 18 -69 36
-103 37 -23 0 -14 -31 22 -80 19 -26 35 -55 35 -64 0 -25 29 -76 66 -119 22
-24 34 -47 34 -66 0 -16 6 -31 15 -35 8 -3 15 -12 15 -19 0 -8 6 -20 14 -26 8
-7 18 -27 22 -44 3 -18 15 -43 25 -56 11 -13 19 -28 19 -33 0 -5 11 -33 25
-61 13 -29 29 -70 34 -92 6 -22 22 -56 36 -75 14 -19 25 -39 25 -45 0 -18 38
-91 54 -105 9 -7 16 -18 16 -25 0 -8 6 -15 13 -18 8 -3 6 -9 -8 -20 -26 -20
-36 -11 -90 73 -44 70 -175 332 -175 350 0 11 -31 75 -164 336 -17 34 -36 67
-42 75 -6 8 -14 26 -18 41 -3 15 -20 36 -36 48 -17 12 -30 25 -30 29 0 7 50
33 70 37 20 3 99 45 105 55 6 8 12 6 24 -10 13 -17 23 -20 49 -15z m-369 -49
c6 -8 8 -17 4 -20 -7 -8 -33 11 -33 24 0 13 16 11 29 -4z m1842 -58 c-3 -65
-14 -99 -31 -99 -17 0 -91 84 -88 100 4 16 97 71 113 66 6 -2 8 -30 6 -67z
m-1244 7 c-3 -12 -11 -37 -18 -56 -6 -19 -14 -42 -17 -50 -3 -10 -7 -5 -13 14
-5 17 -4 37 2 48 5 10 7 22 4 27 -3 5 0 21 6 35 10 21 15 24 26 14 8 -6 12
-21 10 -32z m1368 -63 c12 -41 37 -274 33 -307 -3 -17 4 -19 77 -17 101 3 118
7 182 43 29 16 57 27 63 23 19 -12 10 -42 -25 -78 -35 -36 -35 -36 -18 -65 17
-30 17 -30 -19 -69 -21 -25 -38 -55 -42 -79 -12 -67 -16 -74 -64 -98 -57 -28
-102 -42 -164 -51 -43 -5 -48 -4 -48 12 0 11 7 28 15 39 8 10 15 33 15 51 0
17 8 51 18 75 28 65 34 104 17 118 -7 6 -16 23 -20 38 -6 27 -58 62 -90 62
-17 0 -18 11 -4 65 15 61 39 246 33 256 -7 12 5 31 18 27 6 -2 16 -22 23 -45z
m-1180 -25 c20 -35 40 -71 45 -80 6 -10 14 -26 20 -35 26 -48 50 -104 50 -119
0 -31 -43 20 -58 67 -7 24 -38 80 -69 125 -50 74 -59 104 -33 104 5 0 25 -28
45 -62z m-757 2 c23 -34 28 -50 15 -50 -7 0 -52 62 -62 84 -9 22 26 -4 47 -34z
m1562 -30 c21 -41 143 -170 194 -206 l30 -20 -13 -61 c-9 -43 -10 -66 -3 -79
7 -13 7 -25 0 -38 -7 -13 -7 -26 1 -44 13 -27 17 -149 6 -182 -8 -24 -22 -25
-114 -5 -109 23 -138 37 -143 73 -2 17 -1 38 4 46 5 8 5 33 2 56 -5 31 -15 48
-41 67 -30 23 -33 29 -27 60 5 27 1 41 -21 73 -31 44 -54 103 -55 139 0 18 20
44 73 93 39 37 75 68 79 68 4 0 17 -18 28 -40z m-2116 -9 c-4 -16 -1 -32 5
-35 12 -8 16 -46 5 -46 -24 0 -46 85 -27 103 15 15 22 5 17 -22z m1896 -45 c0
-23 4 -56 9 -72 5 -16 15 -49 22 -74 7 -25 24 -59 37 -77 34 -47 27 -67 -26
-68 -24 -1 -46 4 -50 9 -4 6 -8 54 -9 106 -1 52 -6 118 -11 147 -6 34 -5 56 2
63 19 19 26 10 26 -34z m-1274 -39 c17 -34 40 -80 52 -102 11 -22 38 -78 60
-125 23 -47 70 -146 105 -220 36 -74 77 -162 92 -195 15 -33 42 -79 61 -102
19 -23 34 -44 34 -48 0 -3 -12 -5 -27 -3 -22 2 -31 12 -47 54 -12 28 -26 57
-33 65 -6 8 -15 28 -19 44 -4 17 -37 91 -75 165 -108 216 -249 512 -249 521 0
24 18 3 46 -54z m954 31 c11 -18 20 -39 20 -46 0 -8 19 -52 41 -99 l42 -85
-22 -21 c-21 -21 -21 -21 -39 -2 -16 16 -46 118 -79 263 -8 33 14 27 37 -10z
m1384 -19 c-1 -52 -9 -131 -19 -177 -5 -21 -3 -42 5 -58 11 -19 11 -27 2 -36
-9 -9 -15 -9 -24 0 -7 7 -29 12 -49 12 -48 0 -56 14 -25 41 34 29 62 99 77
192 14 83 34 100 33 26z m-2456 6 c-3 -3 -9 2 -12 12 -6 14 -5 15 5 6 7 -7 10
-15 7 -18z m-544 -30 c3 -8 17 -20 31 -27 40 -18 29 -29 -27 -26 -47 3 -53 5
-50 23 7 39 35 58 46 30z m429 -19 c11 -34 2 -44 -23 -28 -28 17 -42 15 -35
-7 7 -24 -19 -35 -48 -20 -18 10 -24 8 -41 -13 -17 -21 -33 -26 -90 -31 -40
-4 -76 -13 -86 -22 -21 -19 -30 -19 -44 1 -10 13 -24 15 -79 9 -56 -6 -67 -10
-67 -26 0 -11 -5 -19 -11 -19 -6 0 -9 15 -7 36 l3 36 90 3 c103 3 245 38 345
84 36 16 69 28 74 27 6 -1 14 -15 19 -30z m187 -62 c20 -38 42 -79 50 -91 8
-12 11 -25 7 -29 -9 -10 -8 -12 -65 99 -28 54 -46 97 -39 94 7 -2 28 -35 47
-73z m-820 47 c0 -6 -4 -13 -10 -16 -5 -3 -10 1 -10 9 0 9 5 16 10 16 6 0 10
-4 10 -9z m3630 -44 c0 -19 -47 -40 -56 -25 -8 12 22 38 43 38 7 0 13 -6 13
-13z m-2930 -57 c0 -4 -8 -11 -17 -14 -10 -4 -38 -18 -63 -31 -25 -14 -52 -25
-60 -25 -8 0 -42 -13 -75 -29 -67 -32 -105 -46 -185 -68 -72 -20 -90 -30 -90
-52 0 -13 -9 -20 -32 -24 -18 -2 -35 -3 -37 -1 -6 5 -30 127 -31 153 0 22 1
23 24 7 17 -10 41 -14 78 -12 51 4 188 31 218 43 8 3 30 7 49 9 20 2 45 14 62
30 15 15 34 24 41 21 8 -2 29 3 48 13 32 17 37 17 53 3 9 -9 17 -19 17 -23z
m2826 19 c42 -26 43 -36 2 -54 -43 -18 -85 -62 -99 -105 -7 -19 -17 -38 -23
-42 -16 -11 -84 -10 -91 2 -3 5 15 35 40 67 25 32 45 61 45 66 0 4 12 25 26
47 30 46 51 50 100 19z m-3483 -85 c-15 -24 -37 -31 -47 -16 -2 4 -32 7 -65 5
-62 -2 -81 8 -61 32 13 16 157 26 177 12 9 -7 9 -14 -4 -33z m1697 -25 c0 -23
-8 -24 -32 -2 -18 17 -24 44 -11 57 10 10 43 -32 43 -55z m974 12 c19 -20 13
-47 -14 -61 -22 -12 -40 6 -40 40 0 44 25 54 54 21z m-786 -41 c19 -12 32 -28
32 -40 0 -25 63 -138 90 -160 17 -14 50 -70 50 -84 0 -42 -57 2 -83 64 -8 20
-42 69 -76 109 -44 53 -61 82 -61 102 0 34 5 35 48 9z m-1969 -55 c89 16 121
5 121 -42 0 -20 -6 -21 -97 -25 -54 -2 -101 -2 -104 1 -4 3 -9 32 -12 64 l-6
57 31 -31 c27 -27 36 -30 67 -24z m2226 25 c-3 -5 -11 -10 -16 -10 -6 0 -7 5
-4 10 3 6 11 10 16 10 6 0 7 -4 4 -10z m524 -14 c47 4 46 7 20 -66 -6 -19 -13
-41 -15 -47 -2 -7 -12 -13 -23 -13 -21 0 -27 -20 -41 -145 -8 -72 -6 -83 12
-113 29 -47 14 -60 -59 -54 -32 2 -62 8 -67 13 -6 5 4 35 23 76 45 91 67 200
52 258 -22 86 -7 128 34 101 12 -8 38 -12 64 -10z m444 10 c7 -17 -11 -36 -35
-36 -24 0 -35 29 -17 41 21 13 46 11 52 -5z m-884 -30 c25 -26 21 -69 -7 -85
-22 -12 -9 -57 63 -213 9 -20 25 -44 36 -54 10 -9 19 -27 19 -39 0 -23 -37
-55 -63 -55 -17 0 -34 40 -40 96 -5 41 -51 145 -107 243 -33 57 -35 87 -7 85
10 -1 25 9 35 22 22 30 43 30 71 0z m848 -42 c18 -8 33 -18 33 -22 -1 -16 -27
-40 -67 -60 -54 -28 -88 -73 -113 -152 -21 -67 -32 -80 -65 -80 -11 0 -26 -9
-33 -20 -7 -11 -21 -20 -32 -20 -24 0 -26 13 -5 30 8 7 15 16 15 21 0 5 -7 9
-15 9 -30 0 -14 27 29 47 54 27 127 124 149 201 25 81 22 80 104 46z m236 -9
c-4 -15 -36 -12 -41 3 -3 9 3 13 19 10 13 -1 23 -7 22 -13z m-1172 -154 c25
-26 39 -61 24 -61 -13 0 -62 30 -74 44 -14 17 -8 46 9 46 7 0 25 -13 41 -29z
m1009 17 c0 -7 -7 -22 -15 -32 -8 -11 -15 -30 -15 -42 0 -13 -4 -25 -9 -28 -5
-3 -12 -22 -16 -43 -3 -20 -17 -44 -30 -55 -13 -10 -28 -33 -34 -51 -7 -19
-24 -41 -42 -51 -32 -19 -50 -14 -34 8 6 7 27 35 47 62 45 58 84 138 93 188 4
20 15 41 24 46 22 13 31 12 31 -2z m-3043 -34 c4 -13 -217 -31 -236 -20 -27
17 -5 25 77 29 127 5 155 3 159 -9z m1573 -44 c0 -16 -23 -60 -32 -60 -9 0
-10 16 -2 48 6 21 34 32 34 12z m-1512 -46 c2 -14 -5 -24 -24 -33 -31 -14 -44
-3 -44 37 0 20 4 23 33 20 23 -2 33 -8 35 -24z m1497 -44 c10 -16 -6 -80 -20
-80 -19 0 -25 26 -14 60 11 31 23 38 34 20z m782 -43 c-24 -36 -44 -44 -64
-24 -17 18 -17 19 11 42 23 18 34 21 49 14 16 -9 17 -13 4 -32z m-951 0 c-23
-34 -23 -87 1 -133 11 -21 33 -65 48 -96 15 -31 33 -62 40 -68 11 -9 11 -17 2
-37 -9 -21 -8 -27 6 -38 9 -7 17 -18 17 -26 0 -8 9 -25 20 -39 11 -14 20 -33
20 -42 0 -9 4 -19 9 -22 5 -3 19 -25 31 -47 16 -32 18 -44 9 -50 -9 -5 -4 -20
19 -55 18 -26 33 -53 33 -61 4 -41 19 -71 85 -171 35 -53 78 -114 96 -136 36
-42 51 -67 100 -171 18 -38 36 -72 39 -75 4 -3 14 -23 23 -45 9 -22 25 -49 35
-60 10 -11 26 -37 36 -57 9 -21 21 -38 26 -38 5 0 9 -15 9 -32 0 -18 9 -46 20
-63 11 -16 20 -37 20 -46 0 -9 14 -35 30 -57 17 -23 30 -50 30 -59 0 -10 14
-43 31 -73 35 -63 37 -59 -72 -118 l-60 -33 -22 28 c-29 35 -56 93 -57 118 0
11 -7 29 -15 39 -8 10 -22 42 -31 70 -9 28 -28 66 -42 85 -28 37 -92 160 -92
175 0 6 -16 43 -36 83 -20 41 -33 81 -30 89 3 8 0 28 -8 42 -8 15 -17 44 -21
64 -4 21 -13 42 -21 49 -8 6 -14 24 -14 40 0 16 -14 55 -31 86 -18 32 -46 99
-64 148 -47 131 -60 158 -84 179 -11 11 -21 26 -21 35 0 9 -6 25 -14 36 -7 11
-17 36 -21 55 -4 19 -22 58 -39 85 -53 85 -56 89 -65 110 -5 12 -16 27 -25 34
-9 7 -16 19 -16 25 0 7 -14 25 -30 41 -28 27 -95 134 -88 140 2 1 23 13 48 25
25 13 67 40 94 61 53 43 67 45 42 6z m444 -3 c0 -16 -16 -19 -25 -4 -8 13 4
32 16 25 5 -4 9 -13 9 -21z m-161 -85 c32 -41 41 -60 41 -91 0 -24 -4 -37 -10
-33 -5 3 -10 18 -10 32 0 26 -64 123 -81 123 -5 0 -9 5 -9 10 0 25 32 6 69
-41z m781 26 c0 -8 -7 -15 -15 -15 -8 0 -15 7 -15 15 0 8 7 15 15 15 8 0 15
-7 15 -15z m-547 -39 c42 -51 44 -56 19 -56 -19 0 -92 71 -92 89 0 25 38 8 73
-33z m-903 -21 c7 -8 10 -25 6 -39 -3 -13 -3 -32 0 -40 10 -26 32 -18 39 14
11 48 30 39 40 -19 3 -18 14 -51 24 -74 10 -23 24 -58 32 -77 7 -19 20 -46 29
-60 9 -14 23 -41 30 -60 7 -19 17 -39 22 -44 4 -6 8 -17 8 -26 0 -8 14 -42 30
-73 17 -32 30 -63 30 -69 0 -6 6 -19 13 -27 17 -20 57 -131 57 -157 0 -11 9
-37 21 -59 24 -43 49 -120 49 -148 0 -11 6 -33 13 -50 21 -49 46 -124 71 -212
13 -44 30 -93 38 -110 8 -16 34 -91 57 -165 50 -157 80 -238 92 -246 5 -3 9
-14 9 -26 0 -11 14 -45 30 -75 35 -63 35 -63 15 -63 -21 0 -88 147 -147 320
-28 80 -67 189 -89 243 -21 54 -48 133 -59 175 -39 152 -83 282 -204 602 -48
129 -63 168 -95 245 -46 111 -100 185 -136 185 -48 0 -93 -70 -141 -221 -14
-46 -38 -113 -52 -149 -14 -36 -33 -96 -42 -135 -11 -47 -20 -70 -30 -70 -8 0
-14 5 -13 12 1 6 7 35 12 65 10 60 25 106 52 159 11 20 19 53 19 72 0 20 4 38
9 42 5 3 15 31 21 62 11 51 45 125 87 189 10 16 13 35 9 58 -11 57 14 87 44
51z m642 -122 c9 -10 24 -33 34 -52 11 -18 24 -41 29 -50 6 -9 39 -70 74 -136
55 -102 119 -217 182 -324 8 -14 48 -77 89 -140 42 -64 91 -145 109 -181 19
-36 42 -77 53 -92 10 -14 18 -29 18 -32 0 -4 12 -25 27 -49 56 -88 120 -205
156 -286 33 -71 37 -87 27 -106 -21 -39 -58 -80 -66 -72 -4 4 2 17 13 30 16
17 20 34 18 75 -2 50 -20 83 -66 122 -3 3 -14 21 -24 40 -10 19 -33 55 -52 79
-19 26 -33 56 -33 72 0 15 -5 31 -11 34 -5 4 -15 17 -20 28 -19 42 -36 68 -53
80 -10 8 -16 23 -15 37 6 48 -23 110 -76 163 -29 29 -57 69 -64 90 -7 21 -27
49 -48 64 -19 15 -48 52 -64 84 -15 32 -33 60 -39 64 -5 3 -10 17 -10 29 0 13
-6 29 -14 36 -8 6 -24 40 -36 75 -12 35 -29 74 -39 87 -10 13 -21 37 -25 53
-4 17 -20 46 -36 66 -47 59 -83 129 -67 129 8 0 21 -8 29 -17z m-1867 -257
c-4 -25 -14 -51 -23 -58 -13 -12 -14 -7 -8 37 7 47 23 81 33 71 3 -2 1 -25 -2
-50z m2485 -1216 c0 -5 -7 -10 -16 -10 -8 0 -12 5 -9 10 3 6 10 10 16 10 5 0
9 -4 9 -10z"/>
<path d="M4386 7212 c-2 -4 -1 -14 4 -22 7 -11 14 -12 27 -4 27 17 27 34 -1
34 -13 0 -27 -4 -30 -8z"/>
<path d="M4276 7151 c-9 -15 39 -41 55 -30 12 8 11 12 -5 24 -22 17 -42 19
-50 6z"/>
<path d="M4202 7102 c-25 -2 -32 -8 -30 -20 5 -26 65 -27 113 -2 24 13 31 19
16 16 -13 -2 -33 -2 -45 2 -11 4 -36 6 -54 4z"/>
<path d="M4010 7061 c-14 -4 -26 -14 -28 -23 -2 -12 7 -17 40 -20 24 -3 50 -6
58 -9 8 -2 14 3 15 11 0 10 10 15 32 15 33 0 51 10 39 22 -9 9 -124 12 -156 4z"/>
<path d="M3900 7031 c0 -5 7 -12 16 -15 22 -9 24 -8 24 9 0 8 -9 15 -20 15
-11 0 -20 -4 -20 -9z"/>
<path d="M3950 6990 c0 -7 -18 -8 -49 -4 -41 5 -54 3 -76 -14 -33 -26 -23 -32
52 -28 45 2 65 8 81 24 26 26 27 32 7 32 -8 0 -15 -5 -15 -10z"/>
<path d="M3723 6964 c-3 -8 -16 -20 -29 -25 -36 -13 -31 -40 7 -37 22 2 35 10
45 30 8 15 14 32 14 38 0 16 -30 12 -37 -6z"/>
<path d="M3643 6723 c-18 -6 -16 -33 1 -33 15 0 30 27 18 33 -4 3 -13 2 -19 0z"/>
<path d="M5936 5655 c-3 -8 1 -46 8 -83 8 -37 17 -91 21 -119 4 -29 11 -56 17
-59 14 -9 28 15 28 51 0 17 3 53 5 80 4 39 0 60 -17 95 -24 47 -51 62 -62 35z"/>
<path d="M4560 5990 c-14 -5 -50 -14 -80 -20 -74 -17 -117 -51 -149 -119 -23
-50 -26 -68 -26 -171 0 -93 4 -123 19 -155 25 -52 75 -105 99 -105 10 0 27 -5
38 -10 49 -27 135 27 195 122 20 31 29 37 47 33 36 -9 93 61 120 147 3 9 16
18 28 20 19 2 24 10 26 42 1 21 9 46 18 55 14 17 21 51 10 51 -3 0 -17 -7 -30
-16 -42 -27 -104 -12 -151 38 -36 38 -120 99 -133 97 -4 -1 -17 -5 -31 -9z"/>
<path d="M4916 5738 c-3 -7 -7 -39 -10 -71 -4 -37 -16 -73 -33 -99 -42 -68
-92 -249 -93 -340 0 -10 16 -36 36 -58 31 -34 39 -38 56 -29 11 6 29 26 40 45
25 42 37 42 63 1 24 -38 47 -44 80 -23 22 14 25 24 25 75 0 32 -7 78 -15 102
-9 24 -20 63 -26 87 -5 24 -29 84 -54 133 -39 78 -43 93 -33 114 8 19 8 31 0
50 -12 27 -30 33 -36 13z m124 -539 c0 -5 -7 -9 -15 -9 -15 0 -20 12 -9 23 8
8 24 -1 24 -14z"/>
<path d="M4812 5619 c-7 -23 -11 -44 -8 -46 18 -18 73 45 62 72 -11 31 -41 16
-54 -26z"/>
<path d="M5047 5603 c-18 -18 17 -93 44 -93 15 0 10 49 -7 75 -17 26 -26 30
-37 18z"/>
<path d="M4680 5152 c0 -25 45 -66 64 -59 23 9 20 30 -7 55 -28 27 -57 29 -57
4z"/>
<path d="M4917 5138 c-9 -25 5 -118 19 -118 16 0 30 88 17 109 -13 20 -29 25
-36 9z"/>
<path d="M5900 4084 c-80 -34 -120 -58 -120 -71 0 -17 -2 -17 55 11 42 22 78
32 173 52 12 2 22 9 22 14 0 15 -91 11 -130 -6z"/>
<path d="M5628 4056 c-51 -24 -188 -149 -188 -172 0 -8 -7 -14 -15 -14 -8 0
-15 7 -15 15 0 8 -7 15 -15 15 -10 0 -15 -10 -15 -29 0 -17 -4 -33 -10 -36
-15 -9 -13 -85 3 -85 7 0 33 30 57 68 71 108 215 241 237 219 3 -4 1 -18 -7
-31 -7 -14 -10 -32 -6 -41 10 -27 39 -12 64 32 20 36 21 45 10 62 -16 26 -41
26 -100 -3z"/>
<path d="M5311 3844 c-7 -8 -10 -18 -7 -21 7 -7 36 16 36 28 0 13 -13 10 -29
-7z"/>
<path d="M5257 3753 c-12 -11 -8 -23 8 -23 8 0 15 7 15 15 0 16 -12 20 -23 8z"/>
<path d="M5181 3646 c-13 -15 -30 -77 -34 -121 -2 -25 17 -33 21 -8 9 57 13
64 32 58 24 -8 40 33 18 49 -8 6 -17 17 -19 25 -4 10 -7 10 -18 -3z"/>
<path d="M5372 3579 c-17 -18 -35 -51 -40 -73 -24 -97 -30 -141 -21 -150 14
-15 20 -2 26 60 7 73 38 142 70 157 13 6 22 15 20 21 -7 21 -26 16 -55 -15z"/>
<path d="M5146 3463 c-3 -3 -6 -21 -6 -39 0 -18 -4 -36 -10 -39 -15 -9 -12
-42 4 -48 23 -9 36 15 36 69 0 50 -9 72 -24 57z"/>
<path d="M5320 3311 c0 -12 5 -21 10 -21 6 0 10 6 10 14 0 8 -4 18 -10 21 -5
3 -10 -3 -10 -14z"/>
<path d="M5136 3272 c-3 -5 -1 -34 4 -65 5 -30 6 -65 3 -77 -4 -13 2 -29 14
-43 11 -12 25 -36 32 -54 7 -18 20 -38 28 -45 14 -11 15 -8 8 21 -4 19 -16 48
-26 65 -11 17 -19 50 -19 73 0 23 -4 45 -10 48 -5 3 -10 21 -10 40 0 33 -13
54 -24 37z"/>
<path d="M5250 2913 c0 -5 4 -15 10 -23 11 -18 25 -7 17 15 -6 15 -27 21 -27
8z"/>
<path d="M6005 2590 c-4 -6 5 -10 19 -10 14 0 26 5 26 10 0 6 -9 10 -19 10
-11 0 -23 -4 -26 -10z"/>
<path d="M5440 2988 c0 -7 21 -39 46 -71 25 -32 47 -67 49 -77 6 -31 26 -54
87 -100 80 -60 111 -80 126 -80 26 0 10 19 -47 54 -32 20 -61 43 -65 51 -3 8
-11 15 -19 15 -7 0 -23 10 -35 23 -17 17 -19 26 -10 35 8 8 -4 27 -50 77 -34
36 -62 70 -62 75 0 6 -4 10 -10 10 -5 0 -10 -6 -10 -12z"/>
<path d="M5730 2770 c0 -5 5 -10 10 -10 6 0 10 5 10 10 0 6 -4 10 -10 10 -5 0
-10 -4 -10 -10z"/>
<path d="M5632 2654 c-13 -9 -23 -11 -27 -4 -9 15 -25 2 -19 -15 7 -16 26 -25
79 -36 22 -4 52 -11 68 -15 17 -4 27 -2 27 5 0 6 -6 11 -14 11 -8 0 -24 11
-37 25 -37 40 -53 46 -77 29z"/>
<path d="M1653 7454 c-98 -30 -137 -107 -108 -209 21 -69 91 -165 155 -211 30
-21 57 -51 65 -71 13 -32 17 -34 49 -28 27 6 49 0 98 -23 84 -39 221 -60 280
-43 56 17 101 52 121 94 14 28 15 45 6 97 -5 35 -13 68 -17 74 -19 32 -94 126
-101 126 -4 0 -23 16 -43 34 -20 19 -50 42 -66 50 -18 9 -33 27 -37 43 -9 36
-22 43 -54 32 -21 -7 -42 -4 -92 15 -87 32 -188 40 -256 20z m138 -134 c88
-49 105 -64 114 -97 5 -23 10 -25 42 -20 30 5 53 -3 146 -51 60 -31 116 -67
124 -79 23 -34 9 -91 -22 -99 -37 -9 -64 1 -167 60 -70 40 -98 62 -113 90 -18
34 -23 36 -55 31 -38 -6 -96 20 -184 82 -39 28 -46 38 -46 66 0 70 53 76 161
17z"/>
<path d="M5490 7151 c0 -5 17 -15 38 -21 20 -7 45 -19 54 -27 18 -16 48 -11
48 7 0 6 -8 13 -17 16 -10 3 -31 12 -46 20 -32 16 -77 19 -77 5z"/>
<path d="M5636 7101 c-16 -25 17 -49 58 -42 5 1 29 -8 54 -19 33 -16 48 -18
56 -10 15 15 -26 45 -84 60 -25 7 -52 14 -62 16 -9 3 -19 1 -22 -5z"/>
<path d="M5845 7030 c-3 -5 8 -16 24 -25 39 -19 62 -20 55 0 -4 8 -14 15 -24
15 -11 0 -22 5 -25 10 -8 13 -22 13 -30 0z"/>
<path d="M8052 6996 c-11 -19 -64 -71 -118 -115 -84 -70 -103 -81 -135 -81
-28 0 -39 -5 -44 -19 -8 -25 -41 -54 -68 -58 -12 -2 -74 -21 -137 -43 l-114
-40 -21 27 c-24 29 -25 27 -44 -33 -11 -35 -11 -45 3 -72 9 -17 13 -37 10 -45
-7 -19 43 -77 66 -77 10 0 24 9 31 20 10 14 55 33 145 60 128 39 133 39 180
25 47 -14 48 -14 71 11 20 22 30 25 66 21 85 -11 211 -39 239 -53 22 -11 33
-12 43 -4 18 15 28 61 16 73 -6 6 -11 22 -11 34 0 28 -38 83 -57 83 -7 0 -13
-5 -13 -10 0 -19 -53 -31 -107 -24 -68 8 -70 28 -7 79 38 32 49 36 63 27 34
-25 44 -25 63 -3 23 29 23 74 1 96 -9 10 -18 33 -19 51 -3 35 -50 104 -71 104
-6 0 -20 -15 -31 -34z"/>
<path d="M1412 6948 c-7 -7 -12 -19 -12 -28 0 -9 -18 -33 -39 -53 -68 -64 -79
-155 -30 -253 20 -41 34 -54 89 -82 56 -28 73 -32 125 -30 49 3 72 11 121 42
34 21 70 37 80 36 41 -5 52 1 57 29 15 72 146 103 215 51 18 -13 35 -35 38
-47 9 -35 -14 -80 -53 -104 -40 -25 -91 -21 -162 13 -48 23 -79 16 -73 -18 2
-11 3 -31 3 -45 -1 -27 22 -55 37 -45 5 3 32 -4 61 -14 28 -11 61 -20 74 -20
25 0 110 41 140 68 36 31 77 105 77 137 0 60 -28 129 -70 171 -48 50 -89 71
-166 85 -56 10 -59 10 -141 -31 -47 -23 -92 -39 -100 -36 -19 8 -43 -11 -43
-33 0 -38 -75 -81 -141 -81 -75 0 -123 78 -86 143 6 12 17 25 22 29 17 13 84
9 122 -7 19 -8 41 -15 49 -15 25 0 54 87 32 94 -7 3 -50 16 -96 30 -93 29
-113 31 -130 14z"/>
<path d="M7475 6382 l-30 -16 30 -6 c30 -6 30 -6 8 -18 -25 -14 -29 -33 -13
-62 9 -16 15 -17 41 -8 27 9 29 13 23 42 -3 17 -11 34 -16 37 -6 4 -7 16 -3
28 7 24 1 25 -40 3z"/>
<path d="M6254 6335 c-3 -8 1 -38 9 -67 19 -64 34 -129 42 -183 12 -70 61
-145 96 -145 10 0 25 9 33 21 28 41 -2 133 -97 292 -59 97 -73 110 -83 82z"/>
<path d="M7124 3170 c-31 -12 -35 -23 -35 -85 0 -49 -4 -57 -32 -81 -54 -44
-74 -103 -45 -132 24 -24 38 -11 76 71 60 126 71 159 70 200 -2 40 -2 40 -34
27z"/>
<path d="M6966 2727 c-71 -73 -126 -189 -126 -263 0 -22 -5 -34 -13 -34 -8 0
-22 -9 -33 -21 -13 -15 -16 -24 -8 -36 17 -28 34 -27 34 1 0 21 6 28 31 33 23
4 35 16 55 54 13 27 24 57 24 68 0 11 8 25 18 30 30 16 71 76 77 112 6 35 9
49 20 87 11 40 -25 26 -79 -31z"/>
<path d="M6688 2353 c-55 -59 -85 -162 -56 -191 17 -17 30 -15 26 5 -3 17 43
73 61 73 12 0 41 63 41 90 0 15 -29 50 -41 50 -3 0 -17 -12 -31 -27z"/>
<path d="M2767 2226 c-47 -17 -107 -63 -107 -82 0 -18 34 -18 50 1 16 20 65
43 104 50 25 5 41 0 81 -27 69 -47 87 -103 83 -257 -2 -81 0 -115 9 -118 17
-6 26 74 21 186 -8 145 -43 208 -137 247 -41 17 -55 17 -104 0z"/>
</g>
</svg>
